<?xml version="1.0" standalone="no"?>
<!DOCTYPE svg PUBLIC "-//W3C//DTD SVG 20010904//EN"
 "http://www.w3.org/TR/2001/REC-SVG-20010904/DTD/svg10.dtd">
<svg version="1.0" xmlns="http://www.w3.org/2000/svg"
 width="1001.000000pt" height="1001.000000pt" viewBox="0 0 1001.000000 1001.000000"
 preserveAspectRatio="xMidYMid meet">
<metadata>
Created by potrace 1.11, written by Peter Selinger 2001-2013
</metadata>
<g transform="translate(0.000000,1001.000000) scale(0.100000,-0.100000)"
fill="#000000" stroke="none">
<path d="M402 9919 c-91 -23 -155 -57 -226 -120 -82 -74 -146 -188 -161 -290
-4 -24 -7 -1410 -7 -3079 l0 -3035 21 -65 c51 -159 169 -283 326 -343 59 -22
69 -22 565 -25 277 -2 506 -4 507 -6 1 -1 3 -220 3 -487 1 -436 3 -490 19
-549 54 -192 210 -337 403 -376 18 -4 258 -7 533 -8 l500 -1 5 -530 c6 -570 4
-550 60 -650 73 -131 184 -220 324 -260 55 -16 275 -17 3165 -17 1708 0 3122
3 3141 6 183 33 334 163 401 346 l24 65 0 3060 c0 1683 -3 3074 -7 3090 -33
148 -138 284 -276 354 -102 52 -121 53 -659 55 -276 1 -504 4 -507 7 -3 3 -6
232 -7 510 0 474 -2 508 -20 567 -38 120 -106 214 -204 281 -136 92 -146 93
-708 93 -283 0 -480 4 -483 10 -3 5 -6 218 -6 472 0 480 -3 526 -43 626 -59
145 -196 261 -365 307 -14 4 -1424 8 -3135 9 -3011 2 -3112 1 -3183 -17z"/>
</g>
</svg>
