<svg xmlns="http://www.w3.org/2000/svg" xmlns:xlink="http://www.w3.org/1999/xlink" viewBox="0 0 604.58 188.58">
  <defs>
    <filter id="AI_GaussianBlur_7" name="AI_GaussianBlur_7">
      <feGaussianBlur stdDeviation="7"/>
    </filter>
    <linearGradient id="linear-gradient" x1="15.25" y1="107.38" x2="138.3" y2="107.38" gradientUnits="userSpaceOnUse">
      <stop offset="0" stop-color="#f4f2f2"/>
      <stop offset="1" stop-color="#fff"/>
    </linearGradient>
    <linearGradient id="linear-gradient-2" x1="121.74" y1="197.41" x2="121.74" y2="18.64" gradientUnits="userSpaceOnUse">
      <stop offset="0" stop-color="#f2f2f2"/>
      <stop offset="1" stop-color="#fff"/>
    </linearGradient>
  </defs>
  <title>bitcards_logo_on_dark</title>
  <g id="Layer_2" data-name="Layer 2">
    <g id="Layer_1-2" data-name="Layer 1">
      <g>
        <g style="opacity: 0.18;filter: url(#AI_GaussianBlur_7)">
          <path d="M81.36,185.78,52.75,56.32l12.12-2.53a16.85,16.85,0,0,1,13.33-12,16.66,16.66,0,0,1,11.58-5,15.62,15.62,0,0,1,10.16,3.7,15.3,15.3,0,0,1,4.37-.66,15.64,15.64,0,0,1,10.09,3.64l23.89-5L40.19,28.28A11.58,11.58,0,0,0,27.38,38.36L12.64,173.22A11.43,11.43,0,0,0,23,185.71l82.84,8.6c.74-.29,1.49-.55,2.26-.76,5.92-1.7,11.78-3.58,17.68-5.35l-16.81.56Z" transform="translate(-12.57 -18.64)"/>
        </g>
        <path d="M109.57,185.21l-27-3-28-130L138.3,34.27,42.28,24A11.4,11.4,0,0,0,29.73,34.17L15.31,169.6a11.4,11.4,0,0,0,10.13,12.54l81.07,8.63c.72-.29,1.46-.55,2.21-.77,5.79-1.71,11.53-3.6,17.3-5.37Z" transform="translate(-12.57 -18.64)" style="fill: url(#linear-gradient)"/>
        <g>
          <path d="M214.16,70.35a11.93,11.93,0,0,1,3.36-8.6,12.66,12.66,0,0,1,17.46,0,12.68,12.68,0,0,1,0,17.19,12.66,12.66,0,0,1-17.46,0A11.92,11.92,0,0,1,214.16,70.35Zm1.34,82.41V92.19a2.63,2.63,0,0,1,2.63-2.63h16.24A2.63,2.63,0,0,1,237,92.19v60.57a2.63,2.63,0,0,1-2.63,2.63H218.13A2.63,2.63,0,0,1,215.5,152.76Z" transform="translate(-12.57 -18.64)" style="fill: #fff"/>
          <path d="M248.76,89.56h7.45V75a2.63,2.63,0,0,1,2.63-2.63h16.24A2.63,2.63,0,0,1,277.7,75V89.56H294a2.63,2.63,0,0,1,2.63,2.63v11.13a2.63,2.63,0,0,1-2.63,2.63H277.7v25.69a9.83,9.83,0,0,0,1.68,6.09q1.68,2.21,6.11,2.21a36.48,36.48,0,0,0,4.9-.34q1-.13,2-.32a2.62,2.62,0,0,1,3.11,2.32l1,10.07a2.6,2.6,0,0,1-1.68,2.71,36.17,36.17,0,0,1-6.05,1.54,55.21,55.21,0,0,1-9.4.81,26.18,26.18,0,0,1-10.68-1.95,19.37,19.37,0,0,1-7.12-5.24,20.78,20.78,0,0,1-4-7.79,35,35,0,0,1-1.28-9.61V105.95h-7.45a2.63,2.63,0,0,1-2.63-2.63V92.19A2.63,2.63,0,0,1,248.76,89.56Z" transform="translate(-12.57 -18.64)" style="fill: #fff"/>
          <path d="M338.41,88.22a46.67,46.67,0,0,1,10,1.07,39.55,39.55,0,0,1,5.31,1.54,4.36,4.36,0,0,1,2.75,4.71l-1,6.91a4.4,4.4,0,0,1-5.42,3.65l-1.41-.32a34.13,34.13,0,0,0-7.19-.77q-8.6,0-12.89,4.67t-4.3,12.8q0,8.13,4.3,12.8t12.89,4.67a33.94,33.94,0,0,0,7.19-.77l1.42-.32a4.4,4.4,0,0,1,5.42,3.65l1,6.91a4.36,4.36,0,0,1-2.75,4.71,39.35,39.35,0,0,1-5.32,1.54,46.68,46.68,0,0,1-10,1.08,42.54,42.54,0,0,1-15-2.49,31.35,31.35,0,0,1-11.22-7,30,30,0,0,1-7-10.81,41.57,41.57,0,0,1,0-27.94,30,30,0,0,1,7-10.81,31.4,31.4,0,0,1,11.22-7A42.55,42.55,0,0,1,338.41,88.22Z" transform="translate(-12.57 -18.64)" style="fill: #fff"/>
          <path d="M405,148.94a27.47,27.47,0,0,1-8.4,5.44A28.39,28.39,0,0,1,385,156.73a20.18,20.18,0,0,1-7.93-1.48,16.58,16.58,0,0,1-5.84-4,18,18,0,0,1-3.63-6,20.78,20.78,0,0,1-1.28-7.32q0-9.13,5.71-13.77t16.19-5.44q3.9-.27,8.26-.4t7.72-.27v-2.15q0-10.75-12-10.75a37.82,37.82,0,0,0-9.07,1.07q-1.86.46-3.59,1.06a4.38,4.38,0,0,1-5.69-3l-1.71-6.55a4.38,4.38,0,0,1,2.43-5.12,50.68,50.68,0,0,1,7.76-2.68,54.52,54.52,0,0,1,13.9-1.68q13.83,0,21.63,7.19T425.73,117V152a3.37,3.37,0,0,1-3.37,3.37h-14A3.36,3.36,0,0,1,405,152Zm-11.69-6.31a20.71,20.71,0,0,0,5.84-.81,22.27,22.27,0,0,0,5-2.15v-9.81q-3.22.27-5.78.6t-5,.6q-6.58.81-6.58,6.18a4.93,4.93,0,0,0,1.68,3.9A7,7,0,0,0,393.36,142.62Z" transform="translate(-12.57 -18.64)" style="fill: #fff"/>
          <path d="M483,105.55a2.63,2.63,0,0,1-2.63,2.55h0q-12.76,0-18,6.45v37.1a3.74,3.74,0,0,1-3.74,3.74h-14a3.74,3.74,0,0,1-3.74-3.74V93.29a3.74,3.74,0,0,1,3.74-3.74H458a3.74,3.74,0,0,1,3.74,3.74v7.28a18.13,18.13,0,0,1,5.78-8.46Q471.4,89,477.72,89a20.76,20.76,0,0,1,3.16.2l.4.07A2.63,2.63,0,0,1,483.43,92Z" transform="translate(-12.57 -18.64)" style="fill: #fff"/>
          <path d="M549.66,155.38H538.09a4.49,4.49,0,0,1-4.49-4.49v-3.76a22.47,22.47,0,0,1-8,7,24.8,24.8,0,0,1-11.75,2.6,23.36,23.36,0,0,1-10.34-2.35,24.62,24.62,0,0,1-8.4-6.72,32.35,32.35,0,0,1-5.58-10.54,44.47,44.47,0,0,1-2-13.84,39.06,39.06,0,0,1,2.75-15.18,32.19,32.19,0,0,1,7.39-11,30.21,30.21,0,0,1,10.81-6.65,38.69,38.69,0,0,1,13.16-2.22,36.22,36.22,0,0,1,6.18.47,38.88,38.88,0,0,1,4.84,1.14V65a4.49,4.49,0,0,1,4.49-4.49h12.52A4.49,4.49,0,0,1,554.15,65V150.9A4.49,4.49,0,0,1,549.66,155.38Zm-28-15a14.17,14.17,0,0,0,11-4.58V105.42a22.76,22.76,0,0,0-7.66-1.08q-8.06,0-12,5t-4,13.62q0,7.69,3,12.54T521.64,140.34Z" transform="translate(-12.57 -18.64)" style="fill: #fff"/>
          <path d="M617.15,133.89a22.21,22.21,0,0,1-2.08,9.81,19.57,19.57,0,0,1-5.91,7.19,27.07,27.07,0,0,1-9.07,4.37,42.5,42.5,0,0,1-11.55,1.48,67.17,67.17,0,0,1-11.28-1,52.7,52.7,0,0,1-7.69-1.89,3.64,3.64,0,0,1-2.45-4.16l1.54-7.78a3.62,3.62,0,0,1,4.6-2.75,46.07,46.07,0,0,0,5.41,1.26,52.2,52.2,0,0,0,8.8.87,18.4,18.4,0,0,0,6.78-1.14,4,4,0,0,0,2.89-3.83,3.51,3.51,0,0,0-2.55-3.43q-2.55-1-7.66-2.89a68.81,68.81,0,0,1-7.79-3.29,25.64,25.64,0,0,1-6.25-4.3,18.32,18.32,0,0,1-4.1-5.71,17.87,17.87,0,0,1-1.48-7.52q0-10.75,7.25-15.85t18.94-5.1a51.87,51.87,0,0,1,11.28,1.14,34.72,34.72,0,0,1,7.3,2.52,3.6,3.6,0,0,1,1.94,4l-1.52,7.24a3.62,3.62,0,0,1-4.71,2.68q-1.86-.63-3.82-1.12a34.8,34.8,0,0,0-8.46-1,18.76,18.76,0,0,0-6,.74,2.92,2.92,0,0,0-2.08,3,3.42,3.42,0,0,0,2.49,3.29q2.48,1,6.38,2.48,3,1.08,6.58,2.62a31.29,31.29,0,0,1,6.78,4,22.09,22.09,0,0,1,5.31,5.84A15.24,15.24,0,0,1,617.15,133.89Z" transform="translate(-12.57 -18.64)" style="fill: #fff"/>
        </g>
        <g>
          <path d="M206.64,164.59,174.41,28.53a12.14,12.14,0,0,0-14.34-9.44l-109.79,22a12.14,12.14,0,0,0-9.44,14.34L68.07,197.52A12.14,12.14,0,0,0,82.4,207l114.79-28A12.14,12.14,0,0,0,206.64,164.59ZM194,166.79C192.86,167.1,119.79,187,85.36,187c-8.3,0-32.73-120.56-33.14-130.24-.08-1.76,18.1-13.84,18.1-13.84l41.53-9.58s49-3.85,51.11-2.13c11.2,9.12,14.81,18.06,14.68,30.71.21,16.38,6.08,32.62,10.51,48.85C190.48,119.3,199.5,165.27,194,166.79Z" transform="translate(-12.57 -18.64)" style="filter: url(#AI_GaussianBlur_7);opacity: 0.15;"/>
          <path d="M201.47,161.14,174,27.74a11.4,11.4,0,0,0-13.46-8.87L50.87,41.44A11.4,11.4,0,0,0,42,54.91l27.45,133.4a11.4,11.4,0,0,0,13.46,8.87L192.6,174.6A11.4,11.4,0,0,0,201.47,161.14Zm-61-54.42q-4.87-4.85-12.78-3.23a19.91,19.91,0,0,0-11.62,6.84L123.66,147a19.15,19.15,0,0,0,4.37.42,25.48,25.48,0,0,0,5-.53,20,20,0,0,0,8.18-3.5,15.65,15.65,0,0,0,4.88-5.95,21.73,21.73,0,0,0,1.89-7.64,32.25,32.25,0,0,0-.65-8.77Q145.38,111.57,140.51,106.72ZM173.07,132a36.39,36.39,0,0,1-5.62,14.75,40.32,40.32,0,0,1-12.11,11.64,55.38,55.38,0,0,1-18.94,7.27,79.51,79.51,0,0,1-18.53,1.66q-3-.09-5.88-.4a14.84,14.84,0,0,1-13-11.76L80.46,65.11A5.84,5.84,0,0,1,85,58.22l13.87-2.85a5.84,5.84,0,0,1,6.89,4.54l7.08,34.45a27.69,27.69,0,0,1,6.87-7.1A29,29,0,0,1,131,82.71a32.38,32.38,0,0,1,14.36.1,30.89,30.89,0,0,1,12.21,6.06,39.15,39.15,0,0,1,9.3,11.19,52.38,52.38,0,0,1,5.65,15.49A46.56,46.56,0,0,1,173.07,132Z" transform="translate(-12.57 -18.64)" style="fill: url(#linear-gradient-2)"/>
        </g>
      </g>
    </g>
  </g>
</svg>
