<svg xmlns="http://www.w3.org/2000/svg" viewBox="0 0 522.19 138.5">
  <title>bitcards_logo</title>
  <g id="Layer_2" data-name="Layer 2">
    <g id="Layer_1-2" data-name="Layer 1">
      <g>
        <path d="M120,7.3V20H27.3A7.3,7.3,0,0,0,20,27.3V98H7.3A7.3,7.3,0,0,1,0,90.7V7.3A7.3,7.3,0,0,1,7.3,0H112.7A7.3,7.3,0,0,1,120,7.3Z" style="fill: #feee65"/>
        <path d="M120,20V40.5H47.8a7.3,7.3,0,0,0-7.3,7.3V98H20V27.3A7.3,7.3,0,0,1,27.3,20Z" style="fill: #fda639"/>
        <path d="M20,98H40.5v20H27.3a7.3,7.3,0,0,1-7.3-7.3Z" style="fill: #ea447b"/>
        <path d="M140,27.3V40.5H120V20h12.7A7.3,7.3,0,0,1,140,27.3Z" style="fill: #ea447b"/>
        <path d="M120,40.5V90.7a7.3,7.3,0,0,1-7.3,7.3H40.5V47.8a7.3,7.3,0,0,1,7.3-7.3Z" style="fill: #ed5555"/>
        <path d="M140,40.5v70.2a7.3,7.3,0,0,1-7.3,7.3H40.5V98h72.2a7.3,7.3,0,0,0,7.3-7.3V40.5Z" style="fill: #7d5bbf"/>
        <path d="M160.5,47.8v83.4a7.3,7.3,0,0,1-7.3,7.3H47.8a7.3,7.3,0,0,1-7.3-7.3V118h92.2a7.3,7.3,0,0,0,7.3-7.3V40.5h13.2A7.3,7.3,0,0,1,160.5,47.8Z" style="fill: #36b7f3"/>
        <g>
          <path d="M200.9,93.54V45.47h17.27q9.28,0,14.12,3.4t4.84,9.87a11.45,11.45,0,0,1-1.72,6.37,10,10,0,0,1-5.05,3.9,10.14,10.14,0,0,1,5.78,3.7,10.75,10.75,0,0,1,2,6.6q0,7.07-4.47,10.62t-13.26,3.62Zm11.59-28h6q3.8,0,5.42-1.39a4.94,4.94,0,0,0,1.62-4,5.18,5.18,0,0,0-1.75-4.39q-1.75-1.34-5.65-1.34h-5.68Zm0,7.59V84.63h7.59a7.22,7.22,0,0,0,4.82-1.44,5,5,0,0,0,1.68-4q0-6-6-6Z" style="fill: #4d4d4d"/>
          <path d="M256.87,93.54H245.31V45.47h11.56Z" style="fill: #4d4d4d"/>
          <path d="M302.66,54.42H288.23V93.54H276.64V54.42H262.48V45.47h40.18Z" style="fill: #4d4d4d"/>
          <path d="M346.44,77.27a17.56,17.56,0,0,1-2.71,8.87,16.34,16.34,0,0,1-7,6,23.65,23.65,0,0,1-10.22,2.11q-9.48,0-14.92-6.17T306.19,70.6V68.22a29.08,29.08,0,0,1,2.46-12.36,18.63,18.63,0,0,1,7.08-8.19,19.76,19.76,0,0,1,10.7-2.89q8.75,0,14.07,4.61t6,12.7H335q-.13-4.39-2.21-6.31t-6.34-1.92a6.92,6.92,0,0,0-6.34,3.24q-2,3.24-2.11,10.33v3.4q0,7.69,1.93,11t6.65,3.3a8.9,8.9,0,0,0,6.11-1.88q2.11-1.88,2.25-6Z" style="fill: #4d4d4d"/>
          <path d="M379.23,84.56H363.34l-2.77,9H348.19l17.63-48.07h10.9l17.76,48.07H382Zm-13.11-8.95h10.33l-5.18-16.67Z" style="fill: #4d4d4d"/>
          <path d="M415.84,76.54h-6.27v17H398V45.47H416.9q8.55,0,13.37,3.79T435.09,60a15.61,15.61,0,0,1-2,8.31,14.4,14.4,0,0,1-6.36,5.34l10,19.41v.5H424.33Zm-6.27-8.91h7.33a6.58,6.58,0,0,0,5-1.74A6.72,6.72,0,0,0,423.53,61a6.79,6.79,0,0,0-1.68-4.88,6.52,6.52,0,0,0-5-1.77h-7.33Z" style="fill: #4d4d4d"/>
          <path d="M442.09,93.54V45.47h15.49A22.78,22.78,0,0,1,469,48.36,20.31,20.31,0,0,1,477,56.52a24.62,24.62,0,0,1,2.89,11.8v2.21a24.77,24.77,0,0,1-2.79,11.84,20.4,20.4,0,0,1-7.86,8.19,22.26,22.26,0,0,1-11.31,3Zm11.59-39.12V84.63h4a9,9,0,0,0,7.66-3.55Q468,77.53,468,70.53V68.45q0-7-2.67-10.5a9.17,9.17,0,0,0-7.79-3.53Z" style="fill: #4d4d4d"/>
          <path d="M510.6,80.77a4.76,4.76,0,0,0-1.8-4,22.39,22.39,0,0,0-6.32-2.94,60.67,60.67,0,0,1-7.4-2.94q-9.34-4.59-9.34-12.61a11.31,11.31,0,0,1,2.33-7,15.06,15.06,0,0,1,6.59-4.75,25.62,25.62,0,0,1,9.58-1.7,22.43,22.43,0,0,1,9.29,1.85,14.72,14.72,0,0,1,6.39,5.27,13.75,13.75,0,0,1,2.28,7.81H510.63a5.81,5.81,0,0,0-1.8-4.56A7,7,0,0,0,504,53.56a7.91,7.91,0,0,0-4.9,1.37,4,4,0,0,0,.18,6.83,25,25,0,0,0,7,3.1,42.71,42.71,0,0,1,8.19,3.45q7.79,4.49,7.79,12.38a11.74,11.74,0,0,1-4.75,9.91q-4.75,3.6-13,3.6a25.86,25.86,0,0,1-10.58-2.1,16,16,0,0,1-7.13-5.74,15,15,0,0,1-2.39-8.4h11.62q0,3.86,2,5.7t6.49,1.83a7.46,7.46,0,0,0,4.54-1.24A4.09,4.09,0,0,0,510.6,80.77Z" style="fill: #4d4d4d"/>
        </g>
      </g>
    </g>
  </g>
</svg>
