<svg xmlns="http://www.w3.org/2000/svg" viewBox="0 0 170.5 138.5">
  <title>bitcards_wordmark</title>
  <g id="Layer_2" data-name="Layer 2">
    <g id="Layer_1-2" data-name="Layer 1">
      <g>
        <path d="M130,7.3V20H27.3A7.3,7.3,0,0,0,20,27.3V98H7.3A7.3,7.3,0,0,1,0,90.7V7.3A7.3,7.3,0,0,1,7.3,0H122.7A7.3,7.3,0,0,1,130,7.3Z" style="fill: #feee65"/>
        <path d="M130,20V40.5H47.8a7.3,7.3,0,0,0-7.3,7.3V98H20V27.3A7.3,7.3,0,0,1,27.3,20Z" style="fill: #fda639"/>
        <path d="M20,98H40.5v20H27.3a7.3,7.3,0,0,1-7.3-7.3Z" style="fill: #ea447b"/>
        <path d="M150,27.3V40.5H130V20h12.7A7.3,7.3,0,0,1,150,27.3Z" style="fill: #ea447b"/>
        <path d="M130,40.5V90.7a7.3,7.3,0,0,1-7.3,7.3H40.5V47.8a7.3,7.3,0,0,1,7.3-7.3Z" style="fill: #ed5555"/>
        <path d="M150,40.5v70.2a7.3,7.3,0,0,1-7.3,7.3H40.5V98h82.2a7.3,7.3,0,0,0,7.3-7.3V40.5Z" style="fill: #7d5bbf"/>
        <path d="M170.5,47.8v83.4a7.3,7.3,0,0,1-7.3,7.3H47.8a7.3,7.3,0,0,1-7.3-7.3V118H142.7a7.3,7.3,0,0,0,7.3-7.3V40.5h13.2A7.3,7.3,0,0,1,170.5,47.8Z" style="fill: #36b7f3"/>
      </g>
    </g>
  </g>
</svg>
