<svg xmlns="http://www.w3.org/2000/svg" viewBox="0 0 170.5 138.5">
  <title>bitcards_wordmark_white</title>
  <g id="Layer_2" data-name="Layer 2">
    <g id="Layer_1-2" data-name="Layer 1">
      <g>
        <path d="M27.3,20H130V7.3A7.3,7.3,0,0,0,122.7,0H7.3A7.3,7.3,0,0,0,0,7.3V90.7A7.3,7.3,0,0,0,7.3,98H20V27.3A7.3,7.3,0,0,1,27.3,20Z" style="fill: #fff;opacity: 0.4"/>
        <path d="M40.5,47.8a7.3,7.3,0,0,1,7.3-7.3H130V20H27.3A7.3,7.3,0,0,0,20,27.3V98H40.5Z" style="fill: #fff;opacity: 0.7000000000000001"/>
        <path d="M20,98v12.7a7.3,7.3,0,0,0,7.3,7.3H40.5V98Z" style="fill: #fff;opacity: 0.5"/>
        <path d="M150,40.5V27.3a7.3,7.3,0,0,0-7.3-7.3H130V40.5Z" style="fill: #fff;opacity: 0.5"/>
        <path d="M40.5,47.8V98h82.2a7.3,7.3,0,0,0,7.3-7.3V40.5H47.8A7.3,7.3,0,0,0,40.5,47.8Z" style="fill: #fff"/>
        <path d="M150,110.7V40.5H130V90.7a7.3,7.3,0,0,1-7.3,7.3H40.5v20H142.7A7.3,7.3,0,0,0,150,110.7Z" style="fill: #fff;opacity: 0.7000000000000001"/>
        <path d="M163.2,40.5H150v70.2a7.3,7.3,0,0,1-7.3,7.3H40.5v13.2a7.3,7.3,0,0,0,7.3,7.3H163.2a7.3,7.3,0,0,0,7.3-7.3V47.8A7.3,7.3,0,0,0,163.2,40.5Z" style="fill: #fff;opacity: 0.4"/>
      </g>
    </g>
  </g>
</svg>
