<svg xmlns="http://www.w3.org/2000/svg" xmlns:xlink="http://www.w3.org/1999/xlink" viewBox="0 0 194.32 189.58">
  <defs>
    <filter id="AI_GaussianBlur_7" name="AI_GaussianBlur_7">
      <feGaussianBlur stdDeviation="7"/>
    </filter>
    <linearGradient id="linear-gradient" x1="121.74" y1="197.51" x2="121.74" y2="18.74" gradientUnits="userSpaceOnUse">
      <stop offset="0" stop-color="#f2f2f2"/>
      <stop offset="1" stop-color="#fff"/>
    </linearGradient>
  </defs>
  <title>bitcards_logo_wordmark_on_light</title>
  <g id="Layer_2" data-name="Layer 2">
    <g id="Layer_1-2" data-name="Layer 1">
      <g>
        <g style="opacity: 0.18;filter: url(#AI_GaussianBlur_7)">
          <path d="M81.36,185.88,52.75,56.42l12.12-2.53a16.85,16.85,0,0,1,13.33-12,16.66,16.66,0,0,1,11.58-5,15.62,15.62,0,0,1,10.16,3.7,15.3,15.3,0,0,1,4.37-.66,15.64,15.64,0,0,1,10.09,3.64l23.89-5L40.19,28.38A11.58,11.58,0,0,0,27.38,38.46L12.64,173.32A11.43,11.43,0,0,0,23,185.81l82.84,8.6c.74-.29,1.49-.55,2.26-.76,5.92-1.7,11.78-3.58,17.68-5.35l-16.81.56Z" transform="translate(-12.57 -18.74)"/>
        </g>
        <path d="M109.57,185.31l-27-3-28-130L138.3,34.37l-96-10.23A11.4,11.4,0,0,0,29.73,34.27L15.31,169.7a11.4,11.4,0,0,0,10.13,12.54l81.07,8.63c.72-.29,1.46-.55,2.21-.77,5.79-1.71,11.53-3.6,17.3-5.37Z" transform="translate(-12.57 -18.74)" style="fill: #666"/>
        <g>
          <path d="M173.07,132.11a36.39,36.39,0,0,1-5.62,14.75,40.32,40.32,0,0,1-12.11,11.64,55.38,55.38,0,0,1-18.94,7.27,79.51,79.51,0,0,1-18.53,1.66q-3-.09-5.88-.4a14.84,14.84,0,0,1-13-11.76L80.46,65.21A5.84,5.84,0,0,1,85,58.32l13.87-2.85A5.84,5.84,0,0,1,105.76,60l7.08,34.45a27.69,27.69,0,0,1,6.87-7.1A29,29,0,0,1,131,82.81a32.38,32.38,0,0,1,14.36.1A30.89,30.89,0,0,1,157.61,89a39.15,39.15,0,0,1,9.3,11.19,52.38,52.38,0,0,1,5.65,15.49A46.56,46.56,0,0,1,173.07,132.11Z" transform="translate(-12.57 -18.74)" style="fill: #666"/>
          <path d="M206.64,164.69,174.41,28.63a12.14,12.14,0,0,0-14.34-9.44l-111.79,23a12.14,12.14,0,0,0-9.44,14.34L66.07,198.62a12.14,12.14,0,0,0,14.34,9.44L197.2,179A12.14,12.14,0,0,0,206.64,164.69ZM194,166.89c-1.12.31-74.19,20.24-108.62,20.23-8.3,0-32.73-120.56-33.14-130.24C52.14,55.12,70.32,43,70.32,43l41.53-9.58s49-3.85,51.11-2.13c11.2,9.12,14.81,18.06,14.68,30.71.21,16.38,6.08,32.62,10.51,48.85C190.48,119.4,199.5,165.37,194,166.89Z" transform="translate(-12.57 -18.74)" style="filter: url(#AI_GaussianBlur_7);opacity: 0.18;"/>
          <path d="M201.47,161.24,174,27.84A11.4,11.4,0,0,0,160.55,19L50.87,41.54A11.4,11.4,0,0,0,42,55l27.45,133.4a11.4,11.4,0,0,0,13.46,8.87L192.6,174.7A11.4,11.4,0,0,0,201.47,161.24Zm-61-54.42q-4.87-4.85-12.78-3.23a19.91,19.91,0,0,0-11.62,6.84l7.54,36.69a19.15,19.15,0,0,0,4.37.42,25.48,25.48,0,0,0,5-.53,20,20,0,0,0,8.18-3.5,15.65,15.65,0,0,0,4.88-5.95,21.73,21.73,0,0,0,1.89-7.64,32.25,32.25,0,0,0-.65-8.77Q145.38,111.67,140.51,106.82Zm32.55,25.29a36.39,36.39,0,0,1-5.62,14.75,40.32,40.32,0,0,1-12.11,11.64,55.38,55.38,0,0,1-18.94,7.27,79.51,79.51,0,0,1-18.53,1.66q-3-.09-5.88-.4a14.84,14.84,0,0,1-13-11.76L80.46,65.21A5.84,5.84,0,0,1,85,58.32l13.87-2.85A5.84,5.84,0,0,1,105.76,60l7.08,34.45a27.69,27.69,0,0,1,6.87-7.1A29,29,0,0,1,131,82.81a32.38,32.38,0,0,1,14.36.1A30.89,30.89,0,0,1,157.61,89a39.15,39.15,0,0,1,9.3,11.19,52.38,52.38,0,0,1,5.65,15.49A46.56,46.56,0,0,1,173.07,132.11Z" transform="translate(-12.57 -18.74)" style="fill: url(#linear-gradient)"/>
        </g>
      </g>
    </g>
  </g>
</svg>
