<svg id="Layer_1" data-name="Layer 1" xmlns="http://www.w3.org/2000/svg" xmlns:xlink="http://www.w3.org/1999/xlink" viewBox="0 0 369.23 225.01"><defs><style>.cls-1{fill:#ccc;}.cls-1,.cls-2,.cls-3{stroke:#999;stroke-miterlimit:10;stroke-width:1.07px;}.cls-2{fill:#b3b3b3;}.cls-3{fill:#fff;}.cls-4{font-size:17.61px;font-family:Helvetica-Light, Helvetica;font-weight:300;}.cls-5{fill:url(#linear-gradient);}.cls-6{fill:url(#linear-gradient-2);}</style><linearGradient id="linear-gradient" x1="310.71" y1="127.11" x2="369.32" y2="127.11" gradientUnits="userSpaceOnUse"><stop offset="0" stop-color="#fff" stop-opacity="0"/><stop offset="0.31" stop-color="#fff" stop-opacity="0.36"/><stop offset="0.73" stop-color="#fff" stop-opacity="0.82"/><stop offset="0.92" stop-color="#fff"/></linearGradient><linearGradient id="linear-gradient-2" x1="267.34" y1="-120.71" x2="324.59" y2="-120.71" gradientTransform="translate(-105.89 314.78)" gradientUnits="userSpaceOnUse"><stop offset="0" stop-color="#fff" stop-opacity="0"/><stop offset="0.07" stop-color="#fff" stop-opacity="0.18"/><stop offset="0.15" stop-color="#fff" stop-opacity="0.37"/><stop offset="0.24" stop-color="#fff" stop-opacity="0.54"/><stop offset="0.33" stop-color="#fff" stop-opacity="0.68"/><stop offset="0.43" stop-color="#fff" stop-opacity="0.8"/><stop offset="0.53" stop-color="#fff" stop-opacity="0.89"/><stop offset="0.64" stop-color="#fff" stop-opacity="0.95"/><stop offset="0.76" stop-color="#fff" stop-opacity="0.99"/><stop offset="0.92" stop-color="#fff"/></linearGradient></defs><rect class="cls-1" x="56.26" y="39.8" width="311.64" height="35.9"/><rect class="cls-2" x="3.8" y="39.8" width="52.46" height="35.9"/><rect class="cls-1" x="3.8" y="75.7" width="52.46" height="35.9"/><rect class="cls-1" x="3.8" y="111.6" width="52.46" height="35.9"/><rect class="cls-1" x="3.8" y="147.49" width="52.46" height="35.9"/><rect class="cls-1" x="3.8" y="183.39" width="52.46" height="35.9"/><rect class="cls-3" x="56.26" y="75.7" width="103.88" height="35.9"/><rect class="cls-3" x="56.26" y="111.6" width="103.88" height="35.9"/><rect class="cls-3" x="56.26" y="147.49" width="103.88" height="35.9"/><rect class="cls-3" x="56.26" y="183.39" width="103.88" height="35.9"/><rect class="cls-3" x="160.14" y="75.7" width="103.88" height="35.9"/><rect class="cls-3" x="160.14" y="111.6" width="103.88" height="35.9"/><rect class="cls-3" x="160.14" y="147.49" width="103.88" height="35.9"/><rect class="cls-3" x="160.14" y="183.39" width="103.88" height="35.9"/><rect class="cls-3" x="264.02" y="75.7" width="103.88" height="35.9"/><rect class="cls-1" x="56.26" y="39.8" width="103.88" height="35.9"/><rect class="cls-1" x="160.14" y="39.8" width="103.88" height="35.9"/><rect class="cls-1" x="264.02" y="39.8" width="103.88" height="35.9"/><text class="cls-4" transform="translate(309.61 64.29)">C</text><rect class="cls-3" x="264.02" y="111.6" width="103.88" height="35.9"/><rect class="cls-3" x="264.02" y="147.49" width="103.88" height="35.9"/><rect class="cls-3" x="264.02" y="183.39" width="103.88" height="35.9"/><path d="M102.71,64.17l4.88-12.41h1.33l4.75,12.41h-1.2L111,60.27h-5.65l-1.47,3.9Zm3.07-4.9h4.86l-2.43-6.51Z"/><path d="M30.45,89.82H27.31V89.1c.46,0,.88-.08,1.25-.14a2.69,2.69,0,0,0,1-.32,2.16,2.16,0,0,0,.71-.7,3.52,3.52,0,0,0,.42-1.24h.88V98.85h-1.1Z"/><path d="M26.43,127.14a4.46,4.46,0,0,1,.28-1.63,3.64,3.64,0,0,1,.79-1.26,3.4,3.4,0,0,1,1.25-.8,4.83,4.83,0,0,1,3.24,0,3.59,3.59,0,0,1,1.17.71,3,3,0,0,1,.72,1.07,3.62,3.62,0,0,1,.24,1.31,3.54,3.54,0,0,1-.27,1.43,3.85,3.85,0,0,1-.71,1.1,5.25,5.25,0,0,1-1,.87c-.37.25-.75.49-1.14.71l-1.16.65a7,7,0,0,0-1,.65,6.57,6.57,0,0,0-.57.48,3.68,3.68,0,0,0-.5.54,2.51,2.51,0,0,0-.36.64,2.47,2.47,0,0,0-.16.79H34v.93H26.07a6.93,6.93,0,0,1,.19-1.59,3.28,3.28,0,0,1,.76-1.38,9,9,0,0,1,1.32-1.24c.45-.34.89-.65,1.33-.92l1.24-.74a6.38,6.38,0,0,0,1-.73,3,3,0,0,0,.7-.9,2.87,2.87,0,0,0,.05-2.27,2.15,2.15,0,0,0-.56-.79,2.51,2.51,0,0,0-.85-.5,3.5,3.5,0,0,0-1.05-.16,2.3,2.3,0,0,0-1.09.25,2.9,2.9,0,0,0-.85.66,3.16,3.16,0,0,0-.54,1,3,3,0,0,0-.16,1.17Z"/><path d="M29.05,164.72a10,10,0,0,0,1.41-.09,3.17,3.17,0,0,0,1.1-.36,2,2,0,0,0,.71-.72,2.2,2.2,0,0,0,.26-1.15,2.25,2.25,0,0,0-.2-1,1.9,1.9,0,0,0-.56-.66,2.52,2.52,0,0,0-.83-.38,4.07,4.07,0,0,0-1-.12,2.74,2.74,0,0,0-1.06.19,2.44,2.44,0,0,0-.82.54,2.41,2.41,0,0,0-.53.83,2.71,2.71,0,0,0-.19,1H26.24a3.56,3.56,0,0,1,1.17-2.72,2.58,2.58,0,0,1,1.29-.66,7.12,7.12,0,0,1,1.47-.15,4.89,4.89,0,0,1,1.35.18,3.25,3.25,0,0,1,1.1.55,2.65,2.65,0,0,1,.74.94,3.39,3.39,0,0,1-.15,3,2.69,2.69,0,0,1-1.3,1.07,3.22,3.22,0,0,1,1.08.55,2.67,2.67,0,0,1,1,1.59,4.41,4.41,0,0,1,.09.86,3.8,3.8,0,0,1-.26,1.41,3.49,3.49,0,0,1-.76,1.16,3.69,3.69,0,0,1-1.23.8,4.6,4.6,0,0,1-1.67.32,7.48,7.48,0,0,1-1.82-.19A3.12,3.12,0,0,1,27,170.9a2.85,2.85,0,0,1-.81-1.15,6.25,6.25,0,0,1-.4-1.79h1.1a2.61,2.61,0,0,0,.84,2.11,3.22,3.22,0,0,0,2.18.72,3.31,3.31,0,0,0,1.22-.23,2.89,2.89,0,0,0,1-.6,2.47,2.47,0,0,0,.62-.88,2.28,2.28,0,0,0,.2-1,2.38,2.38,0,0,0-.34-1.23,2.25,2.25,0,0,0-.84-.78,3.7,3.7,0,0,0-1.23-.38,8.21,8.21,0,0,0-1.5,0Z"/><path d="M31.41,204.38H25.86v-.94l5.66-8.09h1v8.1H34.2v.93H32.52v3H31.41ZM27,203.45h4.46V197Z"/><path d="M207.73,64.17V51.76h4.48a6.68,6.68,0,0,1,1.86.22,3.52,3.52,0,0,1,1.27.64,2.46,2.46,0,0,1,.71,1,3.5,3.5,0,0,1,.23,1.27,3.45,3.45,0,0,1-.17,1.13,2.72,2.72,0,0,1-.45.79,2.28,2.28,0,0,1-.63.5,2.87,2.87,0,0,1-.73.25v0a2.83,2.83,0,0,1,1.92,1,3.31,3.31,0,0,1,.63,2.07,4,4,0,0,1-.3,1.64,2.92,2.92,0,0,1-.84,1.08,3.52,3.52,0,0,1-1.28.6,7,7,0,0,1-1.63.18Zm1.17-6.93h3a6,6,0,0,0,1.53-.16,2.57,2.57,0,0,0,1-.45,1.71,1.71,0,0,0,.54-.74,2.89,2.89,0,0,0,.17-1,2.43,2.43,0,0,0-.19-1,1.54,1.54,0,0,0-.61-.66,3.27,3.27,0,0,0-1.07-.36,10.7,10.7,0,0,0-1.63-.11H208.9Zm0,5.93h3a13.5,13.5,0,0,0,1.68-.09,3.1,3.1,0,0,0,1.18-.35,1.66,1.66,0,0,0,.7-.76,3,3,0,0,0,.23-1.3,2.62,2.62,0,0,0-.25-1.25,1.79,1.79,0,0,0-.74-.73,3.51,3.51,0,0,0-1.16-.36,11.41,11.41,0,0,0-1.5-.09H208.9Z"/><path d="M66.16,93.22v5.63H65V86.45h4.86a5.38,5.38,0,0,1,3.13.76,2.84,2.84,0,0,1,1.09,2.49,3.3,3.3,0,0,1-.47,1.87,3.6,3.6,0,0,1-1.55,1.17,1.92,1.92,0,0,1,.87.55,2.5,2.5,0,0,1,.46.83,4.37,4.37,0,0,1,.2,1c0,.34,0,.68.06,1q0,.7.06,1.17c0,.31.06.56.1.76a1.68,1.68,0,0,0,.15.45.67.67,0,0,0,.21.25v.11h-1.3A2.31,2.31,0,0,1,72.6,98c0-.37-.1-.75-.12-1.15s-.06-.79-.07-1.17a6.44,6.44,0,0,0-.1-.93,2.08,2.08,0,0,0-.33-.81,1.59,1.59,0,0,0-.56-.45,2.45,2.45,0,0,0-.74-.21,7.4,7.4,0,0,0-.83,0Zm3.65-1A5.17,5.17,0,0,0,71,92.08a2.7,2.7,0,0,0,1-.44,2.11,2.11,0,0,0,.66-.76,2.44,2.44,0,0,0,.24-1.12,2.4,2.4,0,0,0-.25-1.14,1.91,1.91,0,0,0-.67-.71,3,3,0,0,0-1-.36,5.94,5.94,0,0,0-1.13-.1H66.16v4.77Z"/><path d="M77,94.63A5,5,0,0,0,77.17,96a3.27,3.27,0,0,0,.56,1.12,2.7,2.7,0,0,0,.94.76,2.9,2.9,0,0,0,1.31.29,2.82,2.82,0,0,0,1.74-.54,2.59,2.59,0,0,0,1-1.52h1.15a5.44,5.44,0,0,1-.5,1.18,3.57,3.57,0,0,1-.77.95,3.35,3.35,0,0,1-1.11.63A4.42,4.42,0,0,1,80,99.1a4.17,4.17,0,0,1-1.84-.37,3.42,3.42,0,0,1-1.28-1,4.2,4.2,0,0,1-.74-1.48,6.75,6.75,0,0,1-.24-1.83,5.87,5.87,0,0,1,.28-1.85A4.87,4.87,0,0,1,77,91.07a3.65,3.65,0,0,1,1.29-1A3.81,3.81,0,0,1,80,89.69,3.59,3.59,0,0,1,82.88,91a5.59,5.59,0,0,1,1,3.68Zm5.83-.86a4.06,4.06,0,0,0-.18-1.23,2.76,2.76,0,0,0-.54-1,2.41,2.41,0,0,0-.89-.67A2.77,2.77,0,0,0,80,90.62a2.6,2.6,0,0,0-1.21.26,2.78,2.78,0,0,0-.9.69,3.18,3.18,0,0,0-.59,1,4.88,4.88,0,0,0-.3,1.21Z"/><path d="M92.82,86.45h1v12.4h-1V97.29h0a3,3,0,0,1-.57.78,3.85,3.85,0,0,1-.78.56,4.66,4.66,0,0,1-.87.35,3.39,3.39,0,0,1-.88.12,4.11,4.11,0,0,1-1.84-.37,3.4,3.4,0,0,1-1.25-1,4,4,0,0,1-.72-1.49,7.25,7.25,0,0,1-.22-1.84,6.61,6.61,0,0,1,.24-1.79,4.51,4.51,0,0,1,.73-1.51,3.69,3.69,0,0,1,1.24-1,3.91,3.91,0,0,1,1.77-.38,4.15,4.15,0,0,1,1.82.42,3.24,3.24,0,0,1,1.37,1.25Zm0,7.91a4.82,4.82,0,0,0-.21-1.44A3.9,3.9,0,0,0,92,91.73a3,3,0,0,0-1-.81,2.65,2.65,0,0,0-1.27-.3,2.77,2.77,0,0,0-1.39.32,2.7,2.7,0,0,0-1,.87,3.82,3.82,0,0,0-.55,1.28,6.16,6.16,0,0,0-.14,1.58A4.27,4.27,0,0,0,87,96.16a3.17,3.17,0,0,0,.64,1.09,2.71,2.71,0,0,0,1,.68,3,3,0,0,0,1.2.24,2.67,2.67,0,0,0,1.29-.3,2.63,2.63,0,0,0,1-.8,3.68,3.68,0,0,0,.58-1.21A5.5,5.5,0,0,0,92.82,94.36Z"/><path d="M169.37,95.15a3.73,3.73,0,0,0,.37,1.4,2.68,2.68,0,0,0,.78.94,3.08,3.08,0,0,0,1.09.53,5.16,5.16,0,0,0,1.33.16,4.7,4.7,0,0,0,1.43-.2,2.8,2.8,0,0,0,1-.56,2.27,2.27,0,0,0,.56-.82,2.72,2.72,0,0,0,.18-1,1.93,1.93,0,0,0-.33-1.17,2.52,2.52,0,0,0-.85-.73,5.35,5.35,0,0,0-1.21-.46l-1.39-.33c-.48-.11-.94-.24-1.4-.39a4.49,4.49,0,0,1-1.2-.6,2.92,2.92,0,0,1-.86-1,3.06,3.06,0,0,1-.32-1.5,3,3,0,0,1,1.06-2.31,3.77,3.77,0,0,1,1.31-.74,5.41,5.41,0,0,1,1.83-.28,5.32,5.32,0,0,1,1.83.29,3.87,3.87,0,0,1,1.31.8,3.35,3.35,0,0,1,.77,1.19,3.93,3.93,0,0,1,.26,1.42h-1.12a2.74,2.74,0,0,0-.25-1.22,2.34,2.34,0,0,0-.68-.84,2.89,2.89,0,0,0-1-.48,4.44,4.44,0,0,0-2.65.09,2.58,2.58,0,0,0-1,.65,2.12,2.12,0,0,0-.55,1.84,1.69,1.69,0,0,0,.48,1,2.93,2.93,0,0,0,.93.6,7.81,7.81,0,0,0,1.21.38l1.36.31a13.68,13.68,0,0,1,1.33.39,4.18,4.18,0,0,1,1.15.6,2.82,2.82,0,0,1,.8,1,3.32,3.32,0,0,1,.3,1.49,3.2,3.2,0,0,1-1.19,2.67,5.17,5.17,0,0,1-3.34,1,6.05,6.05,0,0,1-1.79-.25,3.85,3.85,0,0,1-1.43-.76,3.44,3.44,0,0,1-.94-1.25,4.2,4.2,0,0,1-.34-1.77Z"/><path d="M186.15,89.93h1v12.44h-1v-5a3.12,3.12,0,0,1-1.37,1.25,4.13,4.13,0,0,1-1.82.43,3.77,3.77,0,0,1-1.76-.39,3.69,3.69,0,0,1-1.24-1,4.37,4.37,0,0,1-.73-1.5,6.36,6.36,0,0,1-.25-1.8,7.24,7.24,0,0,1,.23-1.84,4.2,4.2,0,0,1,.71-1.49,3.48,3.48,0,0,1,1.25-1,4.3,4.3,0,0,1,1.85-.36,3.45,3.45,0,0,1,.88.12,4.47,4.47,0,0,1,.87.34,3.27,3.27,0,0,1,.77.57,2.94,2.94,0,0,1,.58.78h0Zm0,4.43a5.17,5.17,0,0,0-.2-1.44,3.7,3.7,0,0,0-.6-1.19,2.85,2.85,0,0,0-.95-.81,2.61,2.61,0,0,0-1.26-.3,2.81,2.81,0,0,0-1.4.32,2.67,2.67,0,0,0-1,.87,3.45,3.45,0,0,0-.55,1.28,5.38,5.38,0,0,0-.14,1.58,4.28,4.28,0,0,0,.23,1.49,3.19,3.19,0,0,0,.65,1.09,2.59,2.59,0,0,0,1,.68,3,3,0,0,0,1.21.24,2.75,2.75,0,0,0,2.24-1.1,3.66,3.66,0,0,0,.57-1.21A5.13,5.13,0,0,0,186.15,94.36Z"/><path d="M195.84,89.93h1v8.92h-1V97.61c-.14.16-.3.33-.47.5a3.53,3.53,0,0,1-.59.48A3.85,3.85,0,0,1,194,99a3.24,3.24,0,0,1-1,.15,4,4,0,0,1-1.5-.25,2.43,2.43,0,0,1-1-.7,2.79,2.79,0,0,1-.54-1,4.9,4.9,0,0,1-.16-1.31V89.93h1v5.86a2.56,2.56,0,0,0,.54,1.76,2.2,2.2,0,0,0,1.75.62,2.66,2.66,0,0,0,1.15-.25,2.41,2.41,0,0,0,.85-.7,3.47,3.47,0,0,0,.54-1.07,4.86,4.86,0,0,0,.19-1.36Z"/><path d="M203.47,93.65l.7-.1a2.77,2.77,0,0,0,.66-.19.56.56,0,0,0,.32-.41,2.52,2.52,0,0,0,.06-.52,1.76,1.76,0,0,0-.51-1.3,2.36,2.36,0,0,0-1.71-.51,4.88,4.88,0,0,0-1,.09,2.16,2.16,0,0,0-.79.33,1.84,1.84,0,0,0-.55.62,2.58,2.58,0,0,0-.28,1h-1.06a3.24,3.24,0,0,1,.37-1.35,2.61,2.61,0,0,1,.8-.91,3.17,3.17,0,0,1,1.13-.52,5.59,5.59,0,0,1,1.37-.16,5.75,5.75,0,0,1,1.27.14,3,3,0,0,1,1,.47,2.07,2.07,0,0,1,.69.85,3,3,0,0,1,.25,1.31v4.86a1,1,0,0,0,.22.77c.14.11.43.08.87-.08v.81l-.35.1a1.51,1.51,0,0,1-.46.07,1.83,1.83,0,0,1-.47,0,.8.8,0,0,1-.41-.16,1.07,1.07,0,0,1-.25-.31,1.34,1.34,0,0,1-.13-.4,3.33,3.33,0,0,1,0-.46,4.58,4.58,0,0,1-1.5,1.11,4.44,4.44,0,0,1-1.83.38,4.23,4.23,0,0,1-1.13-.16,2.58,2.58,0,0,1-1-.48,2.42,2.42,0,0,1-.66-.8,2.51,2.51,0,0,1-.24-1.13c0-1.52,1-2.41,3.12-2.69Zm1.74.52a5.36,5.36,0,0,1-1.33.36c-.44.06-.89.1-1.34.14a3.69,3.69,0,0,0-1.85.53,1.52,1.52,0,0,0-.67,1.36,1.48,1.48,0,0,0,.6,1.22,1.77,1.77,0,0,0,.62.29,2.83,2.83,0,0,0,.71.1,4.84,4.84,0,0,0,1.21-.16,3.19,3.19,0,0,0,1-.47,2.45,2.45,0,0,0,.73-.81,2.3,2.3,0,0,0,.28-1.17Z"/><path d="M210,98.85h-1V89.93h1V91.6h0a3,3,0,0,1,1.11-1.49,3.38,3.38,0,0,1,1.8-.42v1.12a3.13,3.13,0,0,0-1.45.27,2.33,2.33,0,0,0-.9.8,3.21,3.21,0,0,0-.47,1.18,8.08,8.08,0,0,0-.12,1.42Z"/><path d="M215.32,94.63a5,5,0,0,0,.19,1.37,3.46,3.46,0,0,0,.56,1.12,2.7,2.7,0,0,0,.94.76,2.9,2.9,0,0,0,1.31.29,2.82,2.82,0,0,0,1.74-.54,2.55,2.55,0,0,0,1-1.52h1.15a5,5,0,0,1-.5,1.18,3.39,3.39,0,0,1-.77.95,3.35,3.35,0,0,1-1.11.63,4.38,4.38,0,0,1-1.48.23,4.2,4.2,0,0,1-1.84-.37,3.5,3.5,0,0,1-1.28-1,4.2,4.2,0,0,1-.74-1.48,6.75,6.75,0,0,1-.24-1.83,5.88,5.88,0,0,1,.29-1.85,4.87,4.87,0,0,1,.81-1.51,3.62,3.62,0,0,1,1.28-1,3.84,3.84,0,0,1,1.72-.37,3.58,3.58,0,0,1,2.9,1.26,5.59,5.59,0,0,1,1,3.68Zm5.83-.86a4.06,4.06,0,0,0-.18-1.23,2.76,2.76,0,0,0-.54-1,2.46,2.46,0,0,0-.88-.67,2.85,2.85,0,0,0-1.23-.25,2.6,2.6,0,0,0-1.21.26,2.78,2.78,0,0,0-.9.69,3.38,3.38,0,0,0-.59,1,4.88,4.88,0,0,0-.3,1.21Z"/><path d="M65,135.31V122.9h4.48a6.75,6.75,0,0,1,1.86.23,3.46,3.46,0,0,1,1.26.63,2.48,2.48,0,0,1,.72,1,3.49,3.49,0,0,1,.22,1.27,3.2,3.2,0,0,1-.17,1.13,2.24,2.24,0,0,1-.45.79,2,2,0,0,1-.63.5,2.43,2.43,0,0,1-.73.25v0a2.78,2.78,0,0,1,1.92,1,3.31,3.31,0,0,1,.63,2.07,4,4,0,0,1-.3,1.64,2.68,2.68,0,0,1-.84,1.08,3.23,3.23,0,0,1-1.28.6,7,7,0,0,1-1.63.18Zm1.17-6.93h3a6.74,6.74,0,0,0,1.54-.15,2.81,2.81,0,0,0,1-.46,1.71,1.71,0,0,0,.54-.74,2.86,2.86,0,0,0,.16-1,2.27,2.27,0,0,0-.19-1,1.45,1.45,0,0,0-.6-.65,3.18,3.18,0,0,0-1.08-.37,10.52,10.52,0,0,0-1.63-.11h-2.7Zm0,5.93h3a13.72,13.72,0,0,0,1.68-.09,2.93,2.93,0,0,0,1.18-.35,1.72,1.72,0,0,0,.7-.76,3.15,3.15,0,0,0,.23-1.3,2.64,2.64,0,0,0-.26-1.25,1.8,1.8,0,0,0-.74-.73,3.45,3.45,0,0,0-1.15-.35,9.84,9.84,0,0,0-1.5-.1H66.18Z"/><path d="M76.5,135.31V122.9h1v12.41Z"/><path d="M86.22,126.38h1v8.93h-1v-1.24c-.14.16-.29.33-.47.5a3.48,3.48,0,0,1-.59.47,3,3,0,0,1-.79.36,3.2,3.2,0,0,1-1,.15,3.85,3.85,0,0,1-1.5-.25,2.43,2.43,0,0,1-1-.7,2.72,2.72,0,0,1-.54-1,4.87,4.87,0,0,1-.16-1.3v-5.88h1v5.86a2.6,2.6,0,0,0,.54,1.77,2.21,2.21,0,0,0,1.76.61,2.51,2.51,0,0,0,1.14-.25,2.41,2.41,0,0,0,.85-.7A3.36,3.36,0,0,0,86,132.6a4.8,4.8,0,0,0,.19-1.36Z"/><path d="M90.39,131.09a4.73,4.73,0,0,0,.19,1.37,3.19,3.19,0,0,0,.56,1.12,2.72,2.72,0,0,0,.94.76,3,3,0,0,0,1.31.28,2.92,2.92,0,0,0,1.74-.53,2.61,2.61,0,0,0,1-1.52h1.16a6.25,6.25,0,0,1-.5,1.18,3.77,3.77,0,0,1-.78.95,3.4,3.4,0,0,1-1.1.63,4.47,4.47,0,0,1-1.48.22,4.36,4.36,0,0,1-1.85-.36,3.39,3.39,0,0,1-1.27-1,4.12,4.12,0,0,1-.74-1.48,6.44,6.44,0,0,1-.25-1.84,5.81,5.81,0,0,1,.29-1.84,4.66,4.66,0,0,1,.81-1.51,3.86,3.86,0,0,1,1.28-1,4,4,0,0,1,1.73-.37,3.55,3.55,0,0,1,2.89,1.27,5.51,5.51,0,0,1,1,3.68Zm5.82-.86A4.18,4.18,0,0,0,96,129a3.09,3.09,0,0,0-.53-1,2.61,2.61,0,0,0-.89-.67,3,3,0,0,0-1.22-.25,2.7,2.7,0,0,0-2.12,1,3.67,3.67,0,0,0-.59,1,4.37,4.37,0,0,0-.29,1.21Z"/><path d="M177.69,126.5a3.54,3.54,0,0,0-1.34-2.25,4.46,4.46,0,0,0-2.57-.68,3.91,3.91,0,0,0-1.93.45,3.86,3.86,0,0,0-1.33,1.21,5.37,5.37,0,0,0-.78,1.75,8.37,8.37,0,0,0-.25,2.09,9.15,9.15,0,0,0,.22,2,5.37,5.37,0,0,0,.71,1.79,3.78,3.78,0,0,0,1.34,1.26,4.16,4.16,0,0,0,2.12.49,4,4,0,0,0,1.45-.26,3.5,3.5,0,0,0,1.15-.72,4.17,4.17,0,0,0,.82-1.07,5.1,5.1,0,0,0,.51-1.37H179a7.47,7.47,0,0,1-.61,1.7,4.82,4.82,0,0,1-1,1.41,4.65,4.65,0,0,1-1.57.95,5.89,5.89,0,0,1-2.16.36,5.31,5.31,0,0,1-2.45-.53,4.66,4.66,0,0,1-1.66-1.42,6.08,6.08,0,0,1-.94-2.08,10.58,10.58,0,0,1-.29-2.5,8.92,8.92,0,0,1,.44-3,5.36,5.36,0,0,1,1.21-2,4.5,4.5,0,0,1,1.83-1.14,7,7,0,0,1,2.29-.35,6.31,6.31,0,0,1,1.77.24,4.39,4.39,0,0,1,1.44.75,4.17,4.17,0,0,1,1,1.24,5,5,0,0,1,.56,1.69Z"/><path d="M181.28,124.44V122.9h1.13v1.54Zm.05,10.87v-8.93h1v8.93Z"/><path d="M186.08,135.31h-1v-8.93h1v1.67h0a3,3,0,0,1,1.11-1.49,3.38,3.38,0,0,1,1.8-.42v1.12a3,3,0,0,0-1.45.28,2.31,2.31,0,0,0-.9.79,3.11,3.11,0,0,0-.47,1.18,8.15,8.15,0,0,0-.13,1.42Z"/><path d="M197.06,129.19a3,3,0,0,0-.95-1.56,2.58,2.58,0,0,0-1.7-.56,2.7,2.7,0,0,0-1.37.33,3,3,0,0,0-.93.87,3.83,3.83,0,0,0-.53,1.22,5.36,5.36,0,0,0-.17,1.37,5.79,5.79,0,0,0,.16,1.38,3.78,3.78,0,0,0,.53,1.21,2.71,2.71,0,0,0,.93.85,2.82,2.82,0,0,0,1.38.32,2.62,2.62,0,0,0,1.85-.64,3,3,0,0,0,.89-1.76h1.1a5.17,5.17,0,0,1-.44,1.36,3.43,3.43,0,0,1-.78,1,3.28,3.28,0,0,1-1.13.68,4.27,4.27,0,0,1-1.49.24,4.36,4.36,0,0,1-1.85-.36,3.47,3.47,0,0,1-1.27-1,4.09,4.09,0,0,1-.74-1.49,6.89,6.89,0,0,1-.25-1.85,5.86,5.86,0,0,1,.27-1.78,4.63,4.63,0,0,1,.79-1.51,3.75,3.75,0,0,1,3-1.43,4,4,0,0,1,2.5.74,3.46,3.46,0,0,1,1.2,2.31Z"/><path d="M200.47,135.31V122.9h1v12.41Z"/><path d="M204.78,131.09a4.73,4.73,0,0,0,.19,1.37,3.19,3.19,0,0,0,.56,1.12,2.81,2.81,0,0,0,.94.76,3,3,0,0,0,1.31.28,2.88,2.88,0,0,0,1.74-.53,2.61,2.61,0,0,0,1-1.52h1.16a6.25,6.25,0,0,1-.5,1.18,3.77,3.77,0,0,1-.78.95,3.4,3.4,0,0,1-1.1.63,4.47,4.47,0,0,1-1.48.22,4.36,4.36,0,0,1-1.85-.36,3.47,3.47,0,0,1-1.27-1,4.29,4.29,0,0,1-.74-1.48,6.82,6.82,0,0,1-.24-1.84A5.81,5.81,0,0,1,204,129a4.66,4.66,0,0,1,.81-1.51,3.86,3.86,0,0,1,1.28-1,4,4,0,0,1,1.73-.37,3.53,3.53,0,0,1,2.89,1.27,5.57,5.57,0,0,1,1,3.68Zm5.82-.86a4.18,4.18,0,0,0-.18-1.24,3.09,3.09,0,0,0-.53-1,2.61,2.61,0,0,0-.89-.67,3,3,0,0,0-1.22-.25,2.77,2.77,0,0,0-1.22.26,2.64,2.64,0,0,0-.89.69,3.46,3.46,0,0,0-.6,1,4.37,4.37,0,0,0-.29,1.21Z"/><path d="M70.28,166.07v-1h5.31v6.41h-1v-2.12a6.3,6.3,0,0,1-.75,1,4.12,4.12,0,0,1-1,.77,4.54,4.54,0,0,1-1.27.49,6.83,6.83,0,0,1-1.64.17,5.55,5.55,0,0,1-2.17-.41,4.69,4.69,0,0,1-1.72-1.23,5.82,5.82,0,0,1-1.13-2.06,9.35,9.35,0,0,1-.41-2.9,9.06,9.06,0,0,1,.35-2.54,5.71,5.71,0,0,1,1.06-2,5,5,0,0,1,1.79-1.37,6.06,6.06,0,0,1,2.54-.5,6.77,6.77,0,0,1,1.84.24,4.94,4.94,0,0,1,1.53.74,4.33,4.33,0,0,1,1.15,1.22,5.25,5.25,0,0,1,.67,1.73H74.24a3.55,3.55,0,0,0-1.41-2.16,3.87,3.87,0,0,0-1.15-.57,4.56,4.56,0,0,0-1.33-.2,4.79,4.79,0,0,0-2.1.43,3.9,3.9,0,0,0-1.45,1.22,5.31,5.31,0,0,0-.84,1.88,10,10,0,0,0-.26,2.4,6.33,6.33,0,0,0,.3,2,4.89,4.89,0,0,0,.88,1.64,4.07,4.07,0,0,0,1.41,1.12,4.18,4.18,0,0,0,1.9.41,4.72,4.72,0,0,0,1-.11,4,4,0,0,0,1-.37,3.91,3.91,0,0,0,.93-.67,3.57,3.57,0,0,0,.74-1,4.39,4.39,0,0,0,.41-1.22,9.37,9.37,0,0,0,.13-1.34Z"/><path d="M79.34,171.48h-1v-8.93h1v1.67h0a2.92,2.92,0,0,1,1.11-1.49,3.38,3.38,0,0,1,1.8-.42v1.12a3,3,0,0,0-1.45.28,2.23,2.23,0,0,0-.9.79,3,3,0,0,0-.47,1.18,8.15,8.15,0,0,0-.13,1.42Z"/><path d="M84.63,167.26a5,5,0,0,0,.19,1.36,3.52,3.52,0,0,0,.56,1.13,2.79,2.79,0,0,0,.94.75,2.9,2.9,0,0,0,1.31.29,2.82,2.82,0,0,0,1.74-.54,2.57,2.57,0,0,0,1-1.51h1.15a5.66,5.66,0,0,1-.5,1.18,3.52,3.52,0,0,1-.77.94,3.35,3.35,0,0,1-1.11.63,4.42,4.42,0,0,1-1.48.23,4.31,4.31,0,0,1-1.84-.36,3.73,3.73,0,0,1-1.28-1,4.25,4.25,0,0,1-.74-1.49,6.75,6.75,0,0,1-.24-1.83,5.87,5.87,0,0,1,.28-1.85,4.71,4.71,0,0,1,.81-1.5,3.76,3.76,0,0,1,3-1.39,3.57,3.57,0,0,1,2.9,1.27,5.57,5.57,0,0,1,1,3.68Zm5.83-.87a4.16,4.16,0,0,0-.18-1.23,2.84,2.84,0,0,0-.54-1,2.52,2.52,0,0,0-.89-.67,2.77,2.77,0,0,0-1.22-.25,2.73,2.73,0,0,0-1.21.26,2.78,2.78,0,0,0-.9.69,3.31,3.31,0,0,0-.59,1,4.8,4.8,0,0,0-.3,1.2Z"/><path d="M94.21,167.26a5,5,0,0,0,.19,1.36,3.52,3.52,0,0,0,.56,1.13,2.79,2.79,0,0,0,.94.75,2.9,2.9,0,0,0,1.31.29,2.82,2.82,0,0,0,1.74-.54,2.57,2.57,0,0,0,1-1.51h1.15a5.66,5.66,0,0,1-.5,1.18,3.52,3.52,0,0,1-.77.94,3.35,3.35,0,0,1-1.11.63,4.42,4.42,0,0,1-1.48.23,4.31,4.31,0,0,1-1.84-.36,3.73,3.73,0,0,1-1.28-1,4.25,4.25,0,0,1-.74-1.49,6.75,6.75,0,0,1-.24-1.83,6.18,6.18,0,0,1,.28-1.85,4.71,4.71,0,0,1,.81-1.5,3.76,3.76,0,0,1,3-1.39,3.55,3.55,0,0,1,2.9,1.27,5.57,5.57,0,0,1,1,3.68Zm5.83-.87a4.16,4.16,0,0,0-.18-1.23,2.84,2.84,0,0,0-.54-1,2.52,2.52,0,0,0-.89-.67,2.77,2.77,0,0,0-1.22-.25,2.73,2.73,0,0,0-1.21.26,2.78,2.78,0,0,0-.9.69,3.31,3.31,0,0,0-.59,1,4.8,4.8,0,0,0-.3,1.2Z"/><path d="M104.19,171.48h-1v-8.93h1v1.24a6.92,6.92,0,0,1,1.28-1.07,3,3,0,0,1,1.6-.41,4,4,0,0,1,1.53.28,2.62,2.62,0,0,1,1.19,1,2.27,2.27,0,0,1,.39,1,8.91,8.91,0,0,1,.06,1.06v5.84h-1v-5.83a2.66,2.66,0,0,0-.53-1.81,2.28,2.28,0,0,0-1.77-.6,2.42,2.42,0,0,0-.88.15,2.47,2.47,0,0,0-.72.38,2.86,2.86,0,0,0-.54.56,2.41,2.41,0,0,0-.35.65,3.8,3.8,0,0,0-.19.83c0,.26,0,.55,0,.86Z"/><path d="M167.77,159.07h9v1h-3.93v11.41H171.7V160.07h-3.93Z"/><path d="M179.4,171.48h-1v-8.93h1v1.67h0a3,3,0,0,1,1.11-1.49,3.43,3.43,0,0,1,1.8-.42v1.12a3,3,0,0,0-1.44.28,2.33,2.33,0,0,0-.91.79,3,3,0,0,0-.46,1.18,7.28,7.28,0,0,0-.13,1.42Z"/><path d="M184.15,160.6v-1.53h1.14v1.53Zm.06,10.88v-8.93h1v8.93Z"/><path d="M192,166.27c.19,0,.42-.05.69-.1a2.86,2.86,0,0,0,.67-.19.56.56,0,0,0,.32-.4,2.61,2.61,0,0,0,.06-.53,1.76,1.76,0,0,0-.51-1.3,2.37,2.37,0,0,0-1.72-.51,4.34,4.34,0,0,0-1,.1,2.1,2.1,0,0,0-.78.32,1.74,1.74,0,0,0-.55.62,2.63,2.63,0,0,0-.29,1h-1a3.44,3.44,0,0,1,.36-1.36,2.94,2.94,0,0,1,.8-.91,3.5,3.5,0,0,1,1.14-.52,5.53,5.53,0,0,1,1.37-.16,5.2,5.2,0,0,1,1.27.15,2.85,2.85,0,0,1,1,.46,2.24,2.24,0,0,1,.69.85,3.06,3.06,0,0,1,.25,1.31v4.86c0,.41.07.66.22.77s.43.08.87-.08v.81l-.36.11a1.74,1.74,0,0,1-.45.06,1.83,1.83,0,0,1-.47-.05.73.73,0,0,1-.41-.16.93.93,0,0,1-.25-.31,1,1,0,0,1-.13-.4,3.14,3.14,0,0,1,0-.45,4.41,4.41,0,0,1-1.49,1.1,4.51,4.51,0,0,1-1.83.38,3.86,3.86,0,0,1-1.13-.16,2.71,2.71,0,0,1-1-.48,2.41,2.41,0,0,1-.65-.8,2.48,2.48,0,0,1-.24-1.13c0-1.52,1-2.41,3.12-2.69Zm1.74.52a5.36,5.36,0,0,1-1.33.36c-.45.06-.9.11-1.34.14a4,4,0,0,0-1.86.53,1.55,1.55,0,0,0-.66,1.37,1.46,1.46,0,0,0,.16.71,1.61,1.61,0,0,0,.43.5,1.86,1.86,0,0,0,.62.29,2.55,2.55,0,0,0,.72.1,4.47,4.47,0,0,0,1.21-.16,3.28,3.28,0,0,0,1-.47,2.37,2.37,0,0,0,.73-.81,2.4,2.4,0,0,0,.28-1.16Z"/><path d="M198.49,171.48h-1v-8.93h1v1.24a6.92,6.92,0,0,1,1.28-1.07,3,3,0,0,1,1.6-.41,4,4,0,0,1,1.53.28,2.62,2.62,0,0,1,1.19,1,2.27,2.27,0,0,1,.39,1,8.91,8.91,0,0,1,.06,1.06v5.84h-1v-5.83a2.66,2.66,0,0,0-.53-1.81,2.28,2.28,0,0,0-1.77-.6,2.42,2.42,0,0,0-.88.15,2.47,2.47,0,0,0-.72.38,2.86,2.86,0,0,0-.54.56,2.41,2.41,0,0,0-.35.65,3.8,3.8,0,0,0-.19.83c0,.26,0,.55,0,.86Z"/><path d="M213.93,162.55h1v8.07a8,8,0,0,1-.18,1.71,3.63,3.63,0,0,1-.64,1.44,3.31,3.31,0,0,1-1.28,1,5.94,5.94,0,0,1-3.77.12,3.85,3.85,0,0,1-1.16-.63,2.76,2.76,0,0,1-.68-.83,2.18,2.18,0,0,1-.25-.86h1.1a2,2,0,0,0,.38.82,2,2,0,0,0,.62.5,2.64,2.64,0,0,0,.78.25,5.29,5.29,0,0,0,.9.07,3.38,3.38,0,0,0,1.68-.36,2.46,2.46,0,0,0,1-1,3.52,3.52,0,0,0,.42-1.33,10.75,10.75,0,0,0,.08-1.51,3.25,3.25,0,0,1-1.37,1.25,4.15,4.15,0,0,1-1.82.42,3.67,3.67,0,0,1-3-1.42,4.61,4.61,0,0,1-.73-1.51,6.66,6.66,0,0,1-.24-1.79,7.32,7.32,0,0,1,.23-1.85,3.89,3.89,0,0,1,.71-1.49,3.4,3.4,0,0,1,1.25-1,4.25,4.25,0,0,1,1.84-.36,3.39,3.39,0,0,1,.88.12,4.06,4.06,0,0,1,.87.35,3.2,3.2,0,0,1,.78.56,2.9,2.9,0,0,1,.57.78h0Zm0,4.5a5.62,5.62,0,0,0-.2-1.51,3.58,3.58,0,0,0-.58-1.21,2.91,2.91,0,0,0-.94-.8,2.86,2.86,0,0,0-1.3-.29,3.17,3.17,0,0,0-1.2.23,2.84,2.84,0,0,0-1,.68,3.22,3.22,0,0,0-.64,1.1,4.27,4.27,0,0,0-.24,1.49,6.08,6.08,0,0,0,.14,1.57,4,4,0,0,0,.55,1.29,2.79,2.79,0,0,0,1,.87,2.88,2.88,0,0,0,1.39.32,2.65,2.65,0,0,0,1.27-.3,3,3,0,0,0,.95-.81,3.79,3.79,0,0,0,.59-1.19A4.92,4.92,0,0,0,213.93,167.05Z"/><path d="M217.72,171.48V159.07h1v12.41Z"/><path d="M222,167.26a4.66,4.66,0,0,0,.19,1.36,3.15,3.15,0,0,0,.56,1.13,2.69,2.69,0,0,0,.94.75,3.09,3.09,0,0,0,3.05-.25,2.55,2.55,0,0,0,1-1.51h1.16a6.25,6.25,0,0,1-.5,1.18,3.56,3.56,0,0,1-.78.94,3.4,3.4,0,0,1-1.1.63,4.47,4.47,0,0,1-1.48.23,4.36,4.36,0,0,1-1.85-.36,3.6,3.6,0,0,1-1.27-1,4.09,4.09,0,0,1-.74-1.49,6.37,6.37,0,0,1-.25-1.83,5.88,5.88,0,0,1,.29-1.85,4.71,4.71,0,0,1,.81-1.5,3.72,3.72,0,0,1,3-1.39,3.55,3.55,0,0,1,2.89,1.27,5.51,5.51,0,0,1,1,3.68Zm5.82-.87a4.16,4.16,0,0,0-.18-1.23,3,3,0,0,0-.53-1,2.61,2.61,0,0,0-.89-.67,2.83,2.83,0,0,0-1.22-.25,2.7,2.7,0,0,0-2.12.95,3.52,3.52,0,0,0-.59,1,4.39,4.39,0,0,0-.29,1.2Z"/><path d="M64.52,201.2a8.73,8.73,0,0,1,.37-2.55,6.17,6.17,0,0,1,1.1-2.08,5.29,5.29,0,0,1,1.79-1.41,5.63,5.63,0,0,1,2.46-.51,6,6,0,0,1,2.55.51,5.14,5.14,0,0,1,1.82,1.39,6.07,6.07,0,0,1,1.11,2.09,8.85,8.85,0,0,1,.37,2.56,8.63,8.63,0,0,1-.37,2.52,6.22,6.22,0,0,1-1.1,2.07,5,5,0,0,1-1.81,1.4,6.34,6.34,0,0,1-5,0,5.13,5.13,0,0,1-1.81-1.4,6,6,0,0,1-1.08-2.07A8.63,8.63,0,0,1,64.52,201.2Zm5.79,5.51a4.35,4.35,0,0,0,2.08-.46A4.11,4.11,0,0,0,73.82,205a5.3,5.3,0,0,0,.83-1.76,8,8,0,0,0,.26-2.08,7.85,7.85,0,0,0-.31-2.32,5,5,0,0,0-.93-1.75,4,4,0,0,0-1.46-1.1,4.65,4.65,0,0,0-1.93-.38,4.32,4.32,0,0,0-2.06.46,4.16,4.16,0,0,0-1.43,1.23,5.45,5.45,0,0,0-.83,1.77,8.57,8.57,0,0,0,0,4.19,5.39,5.39,0,0,0,.83,1.76,4.08,4.08,0,0,0,1.43,1.2A4.51,4.51,0,0,0,70.31,206.71Z"/><path d="M79.34,207.38h-1v-8.92h1v1.67h0a2.92,2.92,0,0,1,1.11-1.49,3.38,3.38,0,0,1,1.8-.42v1.11a3.1,3.1,0,0,0-1.45.28,2.39,2.39,0,0,0-.9.79,3.18,3.18,0,0,0-.47,1.18,8.24,8.24,0,0,0-.13,1.42Z"/><path d="M88.1,202.18c.19,0,.42-.06.69-.11a2.48,2.48,0,0,0,.67-.18.58.58,0,0,0,.32-.41,2.53,2.53,0,0,0,.06-.53,1.77,1.77,0,0,0-.51-1.3,2.37,2.37,0,0,0-1.72-.5,5,5,0,0,0-1,.09,2,2,0,0,0-.78.33,1.66,1.66,0,0,0-.55.62,2.58,2.58,0,0,0-.29,1H84a3.19,3.19,0,0,1,.36-1.35,2.83,2.83,0,0,1,.8-.91,3.3,3.3,0,0,1,1.14-.52,5.53,5.53,0,0,1,1.37-.16,5.21,5.21,0,0,1,1.27.14,2.86,2.86,0,0,1,1,.47,2.16,2.16,0,0,1,.69.85,3,3,0,0,1,.25,1.31v4.86c0,.4.07.66.22.76s.43.09.87-.07v.81l-.36.1a1.41,1.41,0,0,1-.45.07,2.34,2.34,0,0,1-.47-.05.81.81,0,0,1-.41-.17A.84.84,0,0,1,90,207a1.06,1.06,0,0,1-.13-.39,2.32,2.32,0,0,1,0-.46,4.35,4.35,0,0,1-1.5,1.1,4.27,4.27,0,0,1-1.82.38,4.22,4.22,0,0,1-1.13-.15,3.09,3.09,0,0,1-1-.48,2.37,2.37,0,0,1-.89-1.93c0-1.52,1-2.42,3.12-2.69Zm1.74.51a5,5,0,0,1-1.33.37c-.45.05-.9.1-1.34.13a3.83,3.83,0,0,0-1.86.54,1.53,1.53,0,0,0-.66,1.36,1.5,1.5,0,0,0,.16.72,1.57,1.57,0,0,0,.43.49,1.88,1.88,0,0,0,.62.3,3,3,0,0,0,.72.09,4.89,4.89,0,0,0,1.21-.15,3.3,3.3,0,0,0,1-.48,2.37,2.37,0,0,0,.73-.81,2.34,2.34,0,0,0,.28-1.16Z"/><path d="M94.61,207.38h-1v-8.92h1v1.24a6.22,6.22,0,0,1,1.28-1.07,3,3,0,0,1,1.6-.41,4,4,0,0,1,1.53.28,2.62,2.62,0,0,1,1.19,1,2.19,2.19,0,0,1,.39,1,9,9,0,0,1,.06,1.06v5.84h-1v-5.82a2.63,2.63,0,0,0-.53-1.81,2.29,2.29,0,0,0-1.78-.6,2.41,2.41,0,0,0-.87.14,2.76,2.76,0,0,0-.72.39,2.56,2.56,0,0,0-.54.55,2.63,2.63,0,0,0-.35.66,3.72,3.72,0,0,0-.19.82c0,.27,0,.55,0,.86Z"/><path d="M110.05,198.46h1v8.06a7.87,7.87,0,0,1-.18,1.71,3.63,3.63,0,0,1-.64,1.44,3.13,3.13,0,0,1-1.28,1,5.94,5.94,0,0,1-3.77.12,3.63,3.63,0,0,1-1.16-.62,2.93,2.93,0,0,1-.68-.84,2.14,2.14,0,0,1-.25-.85h1.1a2.15,2.15,0,0,0,.38.82,2,2,0,0,0,.62.5,2.64,2.64,0,0,0,.78.25,6.48,6.48,0,0,0,.9.06,3.38,3.38,0,0,0,1.68-.36,2.4,2.4,0,0,0,1-1,3.53,3.53,0,0,0,.42-1.32,10.9,10.9,0,0,0,.08-1.52,3.18,3.18,0,0,1-1.37,1.25,4.15,4.15,0,0,1-1.82.42,3.91,3.91,0,0,1-1.77-.38,3.79,3.79,0,0,1-1.24-1,4.51,4.51,0,0,1-.73-1.51,6.61,6.61,0,0,1-.24-1.79,7.25,7.25,0,0,1,.22-1.84,4,4,0,0,1,.72-1.49,3.4,3.4,0,0,1,1.25-1,4.25,4.25,0,0,1,1.84-.36,3.39,3.39,0,0,1,.88.12,4,4,0,0,1,.87.34,3.54,3.54,0,0,1,.78.57,3.27,3.27,0,0,1,.57.77h0Zm0,4.49a5.5,5.5,0,0,0-.2-1.5,3.49,3.49,0,0,0-.58-1.21,2.68,2.68,0,0,0-.94-.8,2.74,2.74,0,0,0-1.3-.29,3,3,0,0,0-1.2.23,2.71,2.71,0,0,0-1,.68,3.17,3.17,0,0,0-.64,1.09,4.27,4.27,0,0,0-.24,1.49,6.16,6.16,0,0,0,.14,1.58,3.82,3.82,0,0,0,.55,1.28,2.73,2.73,0,0,0,2.36,1.19,2.65,2.65,0,0,0,1.27-.3,3,3,0,0,0,1-.81,3.68,3.68,0,0,0,.59-1.19A4.82,4.82,0,0,0,110.05,203Z"/><path d="M114.32,203.16a5.09,5.09,0,0,0,.19,1.37,3.37,3.37,0,0,0,.56,1.12,2.7,2.7,0,0,0,.94.76,3.16,3.16,0,0,0,3-.25,2.64,2.64,0,0,0,1-1.52h1.15a5.44,5.44,0,0,1-.5,1.18,3.77,3.77,0,0,1-.78,1,3.3,3.3,0,0,1-1.1.63,4.43,4.43,0,0,1-1.48.22,4.31,4.31,0,0,1-1.84-.36,3.42,3.42,0,0,1-1.28-1,4.2,4.2,0,0,1-.74-1.48,6.77,6.77,0,0,1-.24-1.84,5.81,5.81,0,0,1,.28-1.84,4.76,4.76,0,0,1,.81-1.51,3.65,3.65,0,0,1,1.29-1,3.81,3.81,0,0,1,1.72-.37,3.55,3.55,0,0,1,2.89,1.26,5.53,5.53,0,0,1,1,3.68Zm5.83-.86a3.78,3.78,0,0,0-.19-1.23,2.74,2.74,0,0,0-.53-1,2.41,2.41,0,0,0-.89-.67,2.77,2.77,0,0,0-1.22-.25,2.73,2.73,0,0,0-1.21.25,3,3,0,0,0-.9.69,3.46,3.46,0,0,0-.6,1,5.22,5.22,0,0,0-.29,1.21Z"/><path d="M168.89,207.38V195h4.24c.34,0,.68,0,1,0a7.72,7.72,0,0,1,1,.12,4.89,4.89,0,0,1,.94.29,4,4,0,0,1,.89.5,3.66,3.66,0,0,1,1,1.09,6.72,6.72,0,0,1,.63,1.36,8.18,8.18,0,0,1,.32,1.45,9.55,9.55,0,0,1,.1,1.35,10.79,10.79,0,0,1-.08,1.26,7.69,7.69,0,0,1-.25,1.25,6.59,6.59,0,0,1-.45,1.17,4.55,4.55,0,0,1-.72,1,3.74,3.74,0,0,1-.94.77,4.61,4.61,0,0,1-1.07.46,6.26,6.26,0,0,1-1.16.22c-.4,0-.81.06-1.22.06Zm1.17-1h2.81a11.7,11.7,0,0,0,1.49-.09,4.34,4.34,0,0,0,1.42-.48,2.78,2.78,0,0,0,1-.84,5,5,0,0,0,.63-1.16,6.36,6.36,0,0,0,.32-1.32,8.79,8.79,0,0,0,.1-1.33,10.74,10.74,0,0,0-.09-1.37,5.89,5.89,0,0,0-.33-1.33,4.67,4.67,0,0,0-.65-1.15,3.3,3.3,0,0,0-1.07-.87,3.6,3.6,0,0,0-1.31-.38,13,13,0,0,0-1.53-.09h-2.81Z"/><path d="M181.28,196.51V195h1.13v1.53Zm.05,10.87v-8.92h1v8.92Z"/><path d="M189.1,202.18l.7-.11a2.39,2.39,0,0,0,.66-.18.58.58,0,0,0,.32-.41,2.53,2.53,0,0,0,.06-.53,1.77,1.77,0,0,0-.51-1.3,2.36,2.36,0,0,0-1.71-.5,5.06,5.06,0,0,0-1,.09,2,2,0,0,0-.78.33,1.75,1.75,0,0,0-.55.62,2.58,2.58,0,0,0-.29,1h-1a3.19,3.19,0,0,1,.37-1.35,2.61,2.61,0,0,1,.8-.91,3.17,3.17,0,0,1,1.13-.52,5.53,5.53,0,0,1,1.37-.16,5.21,5.21,0,0,1,1.27.14,2.79,2.79,0,0,1,1,.47,2,2,0,0,1,.69.85,3,3,0,0,1,.25,1.31v4.86c0,.4.07.66.22.76s.43.09.87-.07v.81l-.35.1a1.51,1.51,0,0,1-.46.07,2.42,2.42,0,0,1-.47-.05.81.81,0,0,1-.41-.17A1,1,0,0,1,191,207a1.28,1.28,0,0,1-.13-.39,3.44,3.44,0,0,1,0-.46,4.54,4.54,0,0,1-1.5,1.1,4.32,4.32,0,0,1-1.83.38,4.22,4.22,0,0,1-1.13-.15,2.93,2.93,0,0,1-1-.48,2.36,2.36,0,0,1-.66-.81,2.44,2.44,0,0,1-.24-1.12c0-1.52,1-2.42,3.12-2.69Zm1.74.51a5,5,0,0,1-1.33.37c-.45.05-.89.1-1.34.13a3.79,3.79,0,0,0-1.85.54,1.68,1.68,0,0,0-.5,2.08,1.45,1.45,0,0,0,.43.49,1.79,1.79,0,0,0,.62.3,2.82,2.82,0,0,0,.71.09,4.83,4.83,0,0,0,1.21-.15,3.2,3.2,0,0,0,1-.48,2.27,2.27,0,0,0,.73-.81,2.24,2.24,0,0,0,.28-1.16Z"/><path d="M195.47,207.38h-1v-8.92h1v1.34h0a2.66,2.66,0,0,1,1.14-1.18,3.3,3.3,0,0,1,1.62-.4,3.58,3.58,0,0,1,1,.13,2.5,2.5,0,0,1,.73.37,2.17,2.17,0,0,1,.5.55,3.48,3.48,0,0,1,.33.67,3,3,0,0,1,1.2-1.3,3.45,3.45,0,0,1,1.72-.42,3,3,0,0,1,1.45.3,2.14,2.14,0,0,1,.84.79,3.28,3.28,0,0,1,.39,1.13,9.29,9.29,0,0,1,.09,1.31v5.63h-1v-6.17a2.49,2.49,0,0,0-.41-1.51,1.76,1.76,0,0,0-1.51-.55,2.48,2.48,0,0,0-1.09.25,2.46,2.46,0,0,0-.92.76,2.07,2.07,0,0,0-.29.53,5.79,5.79,0,0,0-.18.63c0,.21-.07.43-.09.65s0,.42,0,.6v4.81h-1v-6.17a2.49,2.49,0,0,0-.41-1.51,1.75,1.75,0,0,0-1.5-.55,2.49,2.49,0,0,0-1.1.25,2.46,2.46,0,0,0-.92.76,2,2,0,0,0-.28.53,3.26,3.26,0,0,0-.18.63,4.63,4.63,0,0,0-.1.65q0,.33,0,.6Z"/><path d="M212.48,207.62a4.52,4.52,0,0,1-1.61-.31,3.53,3.53,0,0,1-1.31-.88,4.23,4.23,0,0,1-.89-1.46,6.09,6.09,0,0,1-.32-2.05,6.39,6.39,0,0,1,.25-1.84,4.6,4.6,0,0,1,.78-1.49,3.56,3.56,0,0,1,1.29-1,4.12,4.12,0,0,1,1.81-.37,4.18,4.18,0,0,1,1.83.37,3.74,3.74,0,0,1,1.29,1,4.26,4.26,0,0,1,.77,1.5,6.76,6.76,0,0,1,.25,1.84,5.88,5.88,0,0,1-.3,1.93,4.28,4.28,0,0,1-.83,1.48,3.8,3.8,0,0,1-1.31,1A4.26,4.26,0,0,1,212.48,207.62Zm3-4.7a5.83,5.83,0,0,0-.17-1.48,3.45,3.45,0,0,0-.53-1.2,2.49,2.49,0,0,0-.93-.8,3,3,0,0,0-1.4-.29,2.88,2.88,0,0,0-1.39.31,3,3,0,0,0-.94.85,3.85,3.85,0,0,0-.53,1.2,6,6,0,0,0-.17,1.41,5.23,5.23,0,0,0,.2,1.52,3.52,3.52,0,0,0,.57,1.2,2.77,2.77,0,0,0,.95.78,3,3,0,0,0,1.31.27,2.77,2.77,0,0,0,1.39-.32,2.65,2.65,0,0,0,.94-.85,3.78,3.78,0,0,0,.53-1.21A5.3,5.3,0,0,0,215.51,202.92Z"/><path d="M219.55,207.38h-1v-8.92h1v1.24a6.22,6.22,0,0,1,1.28-1.07,2.9,2.9,0,0,1,1.59-.41,4.06,4.06,0,0,1,1.54.28,2.67,2.67,0,0,1,1.19,1,2.29,2.29,0,0,1,.38,1,9,9,0,0,1,.06,1.06v5.84h-1v-5.82a2.68,2.68,0,0,0-.53-1.81,2.29,2.29,0,0,0-1.78-.6,2.5,2.5,0,0,0-.88.14,2.87,2.87,0,0,0-.71.39,2.39,2.39,0,0,0-.55.55,3,3,0,0,0-.34.66,3.23,3.23,0,0,0-.19.82c0,.27,0,.55,0,.86Z"/><path d="M235,195h1v12.4h-1v-1.57h0a2.83,2.83,0,0,1-.58.79,3.53,3.53,0,0,1-.77.56,4,4,0,0,1-.87.34,3.39,3.39,0,0,1-.88.12,4.25,4.25,0,0,1-1.84-.36,3.32,3.32,0,0,1-1.25-1,4.06,4.06,0,0,1-.72-1.49,7.25,7.25,0,0,1-.22-1.84,6.74,6.74,0,0,1,.24-1.8,4.37,4.37,0,0,1,.73-1.5,3.69,3.69,0,0,1,1.24-1,3.79,3.79,0,0,1,1.77-.38,4.18,4.18,0,0,1,1.82.42,3.18,3.18,0,0,1,1.37,1.25Zm0,7.9a4.8,4.8,0,0,0-.21-1.43,3.7,3.7,0,0,0-.6-1.19,2.82,2.82,0,0,0-.94-.81,2.67,2.67,0,0,0-1.27-.3,2.92,2.92,0,0,0-1.4.31,2.87,2.87,0,0,0-1,.87,3.76,3.76,0,0,0-.55,1.29,5.71,5.71,0,0,0-.14,1.57,4.59,4.59,0,0,0,.23,1.5,3.19,3.19,0,0,0,.65,1.09,2.81,2.81,0,0,0,1,.68,3.18,3.18,0,0,0,1.21.23,2.7,2.7,0,0,0,2.24-1.09,3.68,3.68,0,0,0,.58-1.21A5.57,5.57,0,0,0,235,202.88Z"/><rect class="cls-5" x="310.71" y="25.16" width="58.61" height="203.89"/><rect class="cls-6" x="161.45" y="5.28" width="57.25" height="377.58" transform="translate(384.14 3.99) rotate(90)"/><path d="M68.82,26.09l2.73-12.86h8.29l-.22,1H72.55l-1,4.64H78l-.21,1H71.34L70,26.09Z"/><path d="M79.84,26.09H78.77l2-9.25H81.8l-.37,1.73h0A4.17,4.17,0,0,1,83,17a4,4,0,0,1,2-.44l-.25,1.16a3.37,3.37,0,0,0-1.54.29,3.15,3.15,0,0,0-1.11.82,4.48,4.48,0,0,0-.75,1.22,8.1,8.1,0,0,0-.46,1.47Z"/><path d="M88.29,26.34a4.22,4.22,0,0,1-1.6-.32,2.81,2.81,0,0,1-1.16-.91,3.25,3.25,0,0,1-.6-1.52A5.8,5.8,0,0,1,85,21.47a7.21,7.21,0,0,1,.67-1.91A5.84,5.84,0,0,1,86.84,18,5.22,5.22,0,0,1,88.4,17a5,5,0,0,1,2-.38,3.88,3.88,0,0,1,1.81.38,2.82,2.82,0,0,1,1.12,1,3.53,3.53,0,0,1,.46,1.54,6.75,6.75,0,0,1-.14,1.92,7.43,7.43,0,0,1-.73,2A6.3,6.3,0,0,1,91.68,25a5,5,0,0,1-3.39,1.34Zm4.18-4.87a7.73,7.73,0,0,0,.14-1.54,2.8,2.8,0,0,0-.28-1.24,1.89,1.89,0,0,0-.78-.83,2.7,2.7,0,0,0-1.39-.31,3.38,3.38,0,0,0-1.51.33,4.19,4.19,0,0,0-1.17.88A4.92,4.92,0,0,0,86.66,20a7.34,7.34,0,0,0-.48,1.46,5.88,5.88,0,0,0-.13,1.58,3.1,3.1,0,0,0,.34,1.24,2,2,0,0,0,.82.8,2.67,2.67,0,0,0,1.29.29A3.38,3.38,0,0,0,90,25.05a3.75,3.75,0,0,0,1.16-.89A4.8,4.8,0,0,0,92,22.91,6.61,6.61,0,0,0,92.47,21.47Z"/><path d="M95.66,26.09H94.59l2-9.25h1.07l-.27,1.28A9.54,9.54,0,0,1,98.92,17a3.52,3.52,0,0,1,1.75-.43,3.82,3.82,0,0,1,1.52.29,2.13,2.13,0,0,1,1.2,2.06,9.21,9.21,0,0,1-.17,1.1l-1.29,6.05h-1.07l1.29-6a2.43,2.43,0,0,0-.15-1.87,1.93,1.93,0,0,0-1.71-.63,2.75,2.75,0,0,0-1,.16,3.73,3.73,0,0,0-.83.4,3.37,3.37,0,0,0-.68.57,2.9,2.9,0,0,0-.5.68,4.14,4.14,0,0,0-.38.85c-.08.28-.16.58-.23.9Z"/><path d="M107.77,26.13l-.54.12a2.94,2.94,0,0,1-.74.09,1.4,1.4,0,0,1-1.14-.4,1.74,1.74,0,0,1-.11-1.44l1.43-6.77h-1.31l.2-.89h1.3l.56-2.57h1.07l-.55,2.57h1.73l-.2.89h-1.73l-1.34,6.34c-.05.23-.08.43-.11.59a.87.87,0,0,0,0,.41.37.37,0,0,0,.23.23,1.29,1.29,0,0,0,.51.08,2.25,2.25,0,0,0,.44,0,3.58,3.58,0,0,0,.45-.09Z"/><path d="M115.94,22.25a3.61,3.61,0,0,0,.07,1.46,2,2,0,0,0,.59,1,2.38,2.38,0,0,0,1,.54,4.68,4.68,0,0,0,1.34.17,5,5,0,0,0,1.52-.21,3.76,3.76,0,0,0,1.15-.58,3.06,3.06,0,0,0,.76-.85,3.21,3.21,0,0,0,.41-1,1.83,1.83,0,0,0-.08-1.21,2,2,0,0,0-.74-.76,4.32,4.32,0,0,0-1.15-.47c-.44-.12-.89-.24-1.36-.35s-.91-.25-1.35-.4a3.73,3.73,0,0,1-1.13-.63,2.22,2.22,0,0,1-.67-1,3,3,0,0,1,0-1.56,3.84,3.84,0,0,1,.56-1.29,4.36,4.36,0,0,1,1-1.1,5,5,0,0,1,1.53-.77,6.33,6.33,0,0,1,2-.29,4.66,4.66,0,0,1,1.83.31,2.7,2.7,0,0,1,1.17.83,2.63,2.63,0,0,1,.56,1.22,3.74,3.74,0,0,1-.06,1.48h-1.16a2.6,2.6,0,0,0,0-1.27,1.85,1.85,0,0,0-.51-.87,2.19,2.19,0,0,0-.9-.5,4,4,0,0,0-1.15-.16,4.44,4.44,0,0,0-1.62.26,3.49,3.49,0,0,0-1.15.67,3,3,0,0,0-.72.91,2.44,2.44,0,0,0-.26,1,1.4,1.4,0,0,0,.27,1,2.39,2.39,0,0,0,.83.61,6,6,0,0,0,1.18.4l1.34.32a12.53,12.53,0,0,1,1.31.4,3.13,3.13,0,0,1,1,.63,2.18,2.18,0,0,1,.62,1,3.24,3.24,0,0,1,0,1.55,4.31,4.31,0,0,1-1.82,2.77,6.48,6.48,0,0,1-3.68,1,6,6,0,0,1-1.81-.26,3.12,3.12,0,0,1-1.31-.78,2.76,2.76,0,0,1-.69-1.31,4.39,4.39,0,0,1,0-1.83Z"/><path d="M125.53,26.09l2-9.25h1.07l-2,9.25Zm2.34-11.27.34-1.59h1.18l-.34,1.59Z"/><path d="M139.21,13.23h1.07l-2.73,12.86h-1.07l.34-1.62h0a3.48,3.48,0,0,1-.77.81,5.33,5.33,0,0,1-.93.58,6,6,0,0,1-1,.36,4.37,4.37,0,0,1-2.78-.25,2.6,2.6,0,0,1-1.07-1,3.55,3.55,0,0,1-.4-1.55,7.61,7.61,0,0,1,.17-1.91,8.62,8.62,0,0,1,.64-1.85,6.08,6.08,0,0,1,1.08-1.57A5.29,5.29,0,0,1,133.27,17a4.49,4.49,0,0,1,1.92-.4A3.66,3.66,0,0,1,137,17a2.35,2.35,0,0,1,1.13,1.29Zm-1.75,8.2a5.1,5.1,0,0,0,.1-1.49,3.11,3.11,0,0,0-.35-1.23,2.09,2.09,0,0,0-.8-.84,2.31,2.31,0,0,0-1.24-.32,3.46,3.46,0,0,0-1.52.33,3.89,3.89,0,0,0-1.19.91,4.91,4.91,0,0,0-.86,1.33,6.16,6.16,0,0,0-.48,1.63A4.4,4.4,0,0,0,131,23.3a2.51,2.51,0,0,0,.42,1.13,2,2,0,0,0,.85.71,2.86,2.86,0,0,0,1.2.24,3.15,3.15,0,0,0,1.4-.31,3.68,3.68,0,0,0,1.16-.83,4.7,4.7,0,0,0,.86-1.25A7,7,0,0,0,137.46,21.43Z"/><path d="M141.84,21.72a4.66,4.66,0,0,0-.11,1.42,2.67,2.67,0,0,0,.34,1.16,2.1,2.1,0,0,0,.81.78,2.58,2.58,0,0,0,1.3.3,3.5,3.5,0,0,0,1.92-.56,3.61,3.61,0,0,0,1.33-1.57h1.19a7.2,7.2,0,0,1-.77,1.22,5.26,5.26,0,0,1-1,1,4.6,4.6,0,0,1-1.29.65,5.31,5.31,0,0,1-1.59.23,4,4,0,0,1-1.83-.37,2.77,2.77,0,0,1-1.11-1,3.42,3.42,0,0,1-.43-1.54,6.69,6.69,0,0,1,.16-1.9,7,7,0,0,1,.69-1.91A6.13,6.13,0,0,1,142.61,18,5.32,5.32,0,0,1,144.17,17a4.62,4.62,0,0,1,1.86-.38,3,3,0,0,1,2.73,1.31,5.22,5.22,0,0,1,.26,3.82Zm6.23-.9a4.35,4.35,0,0,0,.08-1.28,2.41,2.41,0,0,0-.33-1,2,2,0,0,0-.77-.7,2.64,2.64,0,0,0-1.21-.26,3.18,3.18,0,0,0-1.32.27,3.92,3.92,0,0,0-1.08.72,4.73,4.73,0,0,0-.84,1,6.15,6.15,0,0,0-.57,1.25Z"/><path d="M173.23,26.09,176,13.23h4.65a6.65,6.65,0,0,1,1.88.23,2.73,2.73,0,0,1,1.17.66,2,2,0,0,1,.53,1,3.09,3.09,0,0,1-.05,1.31,3.66,3.66,0,0,1-.42,1.17,3.74,3.74,0,0,1-.65.83,2.72,2.72,0,0,1-.77.51,3.24,3.24,0,0,1-.8.26l0,0a2.23,2.23,0,0,1,1.76,1.05,3,3,0,0,1,.21,2.15,5.19,5.19,0,0,1-.67,1.69,4,4,0,0,1-1.11,1.13,4.43,4.43,0,0,1-1.46.61,7.46,7.46,0,0,1-1.73.19Zm1.43-1h3.09a15.34,15.34,0,0,0,1.76-.08,4.11,4.11,0,0,0,1.31-.37,2.29,2.29,0,0,0,.9-.79,4,4,0,0,0,.51-1.34,2.57,2.57,0,0,0,0-1.3,1.3,1.3,0,0,0-.6-.76,2.79,2.79,0,0,0-1.11-.36A10.21,10.21,0,0,0,179,20h-3.23Zm1.3-6.14H179a6.93,6.93,0,0,0,1.62-.16,3.49,3.49,0,0,0,1.14-.47,2.46,2.46,0,0,0,.74-.77,3.36,3.36,0,0,0,.39-1.05,2.36,2.36,0,0,0,0-1,1.14,1.14,0,0,0-.48-.68,2.73,2.73,0,0,0-1-.38,10.85,10.85,0,0,0-1.66-.11H177Z"/><path d="M190.38,20.7l.74-.11a3.15,3.15,0,0,0,.74-.2.72.72,0,0,0,.42-.42,3.32,3.32,0,0,0,.17-.54,2.16,2.16,0,0,0,0-.75,1.16,1.16,0,0,0-.28-.59,1.41,1.41,0,0,0-.63-.39,2.93,2.93,0,0,0-1-.15,4,4,0,0,0-1.93.45,2.73,2.73,0,0,0-1.22,1.64h-1.09a4.44,4.44,0,0,1,.67-1.4,3.87,3.87,0,0,1,1-.95,4.33,4.33,0,0,1,1.29-.53,6.48,6.48,0,0,1,1.46-.17,5.11,5.11,0,0,1,1.28.15,2.35,2.35,0,0,1,1,.48,1.71,1.71,0,0,1,.53.89,3.09,3.09,0,0,1,0,1.35l-1.07,5c-.1.42-.08.68,0,.8s.44.08.92-.08l-.17.84-.39.1a1.76,1.76,0,0,1-.49.07,1.8,1.8,0,0,1-.46-.05c-.35-.06-.55-.22-.59-.49a2.43,2.43,0,0,1,0-.89A6.2,6.2,0,0,1,189.53,26a5.2,5.2,0,0,1-2,.39,3.79,3.79,0,0,1-1.14-.16,2.18,2.18,0,0,1-.88-.5,1.77,1.77,0,0,1-.5-.83,2.31,2.31,0,0,1,0-1.17q.48-2.36,3.82-2.79Zm1.69.53a6.36,6.36,0,0,1-1.45.38c-.47.06-.94.11-1.42.14a4.74,4.74,0,0,0-2,.55,2,2,0,0,0-1,1.42,1.4,1.4,0,0,0,0,.74,1.09,1.09,0,0,0,.35.51,1.54,1.54,0,0,0,.58.31,2.77,2.77,0,0,0,.71.1,5.54,5.54,0,0,0,1.28-.16,4.11,4.11,0,0,0,1.18-.5,3.55,3.55,0,0,0,.94-.83,3.2,3.2,0,0,0,.55-1.21Z"/><path d="M202.81,19.75a2.44,2.44,0,0,0-.63-1.62,2.21,2.21,0,0,0-1.64-.58,3.26,3.26,0,0,0-1.48.34,4.07,4.07,0,0,0-1.16.9,4.85,4.85,0,0,0-.82,1.27,7.25,7.25,0,0,0-.49,1.42,5.9,5.9,0,0,0-.13,1.43,3.28,3.28,0,0,0,.28,1.25,2.17,2.17,0,0,0,.78.89,2.51,2.51,0,0,0,1.36.33,3.3,3.3,0,0,0,2.06-.66,4,4,0,0,0,1.3-1.83h1.14a6.54,6.54,0,0,1-.75,1.41,5.13,5.13,0,0,1-1,1.09,4.63,4.63,0,0,1-1.32.7,4.84,4.84,0,0,1-1.6.25,4,4,0,0,1-1.84-.37,2.68,2.68,0,0,1-1.1-1,3.31,3.31,0,0,1-.44-1.55,7.15,7.15,0,0,1,.16-1.91,6.94,6.94,0,0,1,.66-1.85,6.4,6.4,0,0,1,1.14-1.56A5.49,5.49,0,0,1,198.82,17a4.56,4.56,0,0,1,1.92-.4,3.5,3.5,0,0,1,2.44.77,2.85,2.85,0,0,1,.72,2.39Z"/><path d="M204.77,26.09l2.74-12.86h1.07l-1.7,8,5.47-4.39h1.46l-4.18,3.34,2.63,5.91h-1.2l-2.37-5.16-2.09,1.66-.75,3.5Z"/><path d="M220.22,22.25a3.59,3.59,0,0,0,.08,1.46,2,2,0,0,0,.58,1,2.5,2.5,0,0,0,1,.54,4.73,4.73,0,0,0,1.34.17,5.15,5.15,0,0,0,1.53-.21,3.59,3.59,0,0,0,1.14-.58,3.1,3.1,0,0,0,.77-.85,3,3,0,0,0,.4-1,1.77,1.77,0,0,0-.08-1.21,1.9,1.9,0,0,0-.73-.76,4.46,4.46,0,0,0-1.15-.47l-1.36-.35c-.46-.12-.92-.25-1.36-.4a3.67,3.67,0,0,1-1.12-.63,2.15,2.15,0,0,1-.67-1,3,3,0,0,1,0-1.56,3.81,3.81,0,0,1,.55-1.29,4.59,4.59,0,0,1,1.06-1.1,4.94,4.94,0,0,1,1.52-.77,6.35,6.35,0,0,1,2-.29,4.66,4.66,0,0,1,1.83.31,2.83,2.83,0,0,1,1.17.83,2.52,2.52,0,0,1,.55,1.22,3.55,3.55,0,0,1-.05,1.48H228a2.6,2.6,0,0,0,0-1.27,1.85,1.85,0,0,0-.51-.87,2.19,2.19,0,0,0-.9-.5,4,4,0,0,0-1.16-.16,4.42,4.42,0,0,0-1.61.26,3.49,3.49,0,0,0-1.15.67,3,3,0,0,0-.72.91,2.62,2.62,0,0,0-.27,1,1.4,1.4,0,0,0,.28,1,2.39,2.39,0,0,0,.83.61,6,6,0,0,0,1.18.4l1.34.32a12.34,12.34,0,0,1,1.3.4,3.18,3.18,0,0,1,1.06.63,2.17,2.17,0,0,1,.61,1,3.1,3.1,0,0,1,0,1.55,4.28,4.28,0,0,1-1.83,2.77,6.44,6.44,0,0,1-3.68,1,6,6,0,0,1-1.8-.26,3.06,3.06,0,0,1-1.31-.78,2.76,2.76,0,0,1-.69-1.31,4.22,4.22,0,0,1,0-1.83Z"/><path d="M229.82,26.09l2-9.25h1.07l-2,9.25Zm2.34-11.27.33-1.59h1.18l-.34,1.59Z"/><path d="M243.5,13.23h1.07l-2.73,12.86h-1.08l.34-1.62h0a3.7,3.7,0,0,1-.77.81,5.73,5.73,0,0,1-.93.58,6.35,6.35,0,0,1-1,.36,4.37,4.37,0,0,1-2.78-.25,2.54,2.54,0,0,1-1.07-1,3.55,3.55,0,0,1-.4-1.55,7.17,7.17,0,0,1,.17-1.91,8.11,8.11,0,0,1,.64-1.85A5.62,5.62,0,0,1,236,18.06,5.15,5.15,0,0,1,237.56,17a4.49,4.49,0,0,1,1.92-.4,3.63,3.63,0,0,1,1.79.44,2.4,2.4,0,0,1,1.14,1.29Zm-1.75,8.2a5.09,5.09,0,0,0,.09-1.49,3.1,3.1,0,0,0-.34-1.23,2.09,2.09,0,0,0-.8-.84,2.31,2.31,0,0,0-1.24-.32,3.43,3.43,0,0,0-1.52.33,4.06,4.06,0,0,0-1.2.91,4.88,4.88,0,0,0-.85,1.33,6.16,6.16,0,0,0-.48,1.63,4.68,4.68,0,0,0-.09,1.55,2.77,2.77,0,0,0,.42,1.13,2.18,2.18,0,0,0,.85.71,2.9,2.9,0,0,0,1.21.24,3.15,3.15,0,0,0,1.4-.31,3.8,3.8,0,0,0,1.16-.83,4.7,4.7,0,0,0,.86-1.25A7,7,0,0,0,241.75,21.43Z"/><path d="M246.12,21.72a5,5,0,0,0-.1,1.42,2.67,2.67,0,0,0,.33,1.16,2.2,2.2,0,0,0,.82.78,2.56,2.56,0,0,0,1.29.3,3.5,3.5,0,0,0,1.92-.56,3.55,3.55,0,0,0,1.33-1.57h1.2a7.93,7.93,0,0,1-.78,1.22,5,5,0,0,1-1,1,4.68,4.68,0,0,1-1.28.65,5.31,5.31,0,0,1-1.59.23,4,4,0,0,1-1.83-.37,2.7,2.7,0,0,1-1.11-1,3.43,3.43,0,0,1-.44-1.54,7.51,7.51,0,0,1,.16-1.9,7.41,7.41,0,0,1,.7-1.91A6.13,6.13,0,0,1,246.9,18,5.41,5.41,0,0,1,248.45,17a4.66,4.66,0,0,1,1.87-.38A3,3,0,0,1,253,17.9a5.12,5.12,0,0,1,.26,3.82Zm6.24-.9a4.35,4.35,0,0,0,.08-1.28,2.72,2.72,0,0,0-.33-1,2,2,0,0,0-.77-.7,2.68,2.68,0,0,0-1.22-.26,3.17,3.17,0,0,0-1.31.27,3.92,3.92,0,0,0-1.08.72,4.73,4.73,0,0,0-.84,1,5.65,5.65,0,0,0-.57,1.25Z"/></svg>