<svg xmlns="http://www.w3.org/2000/svg" viewBox="0 0 146.5 144.41">
  <title>favicon</title>
  <g id="Layer_2" data-name="Layer 2">
    <g id="Layer_1-2" data-name="Layer 1">
      <g>
        <path d="M28.47,20.85h75.8V7.61A7.61,7.61,0,0,0,96.66,0h-89A7.61,7.61,0,0,0,0,7.61v87a7.61,7.61,0,0,0,7.61,7.61H20.85V28.47A7.61,7.61,0,0,1,28.47,20.85Z" style="fill: #feee65"/>
        <path d="M42.23,49.84a7.61,7.61,0,0,1,7.61-7.61h54.43V20.85H28.47a7.61,7.61,0,0,0-7.61,7.61v73.72H42.23Z" style="fill: #fda639"/>
        <path d="M20.85,102.19v13.24A7.61,7.61,0,0,0,28.47,123H42.23V102.19Z" style="fill: #ea447b"/>
        <path d="M125.12,42.23V28.47a7.61,7.61,0,0,0-7.61-7.61H104.27V42.23Z" style="fill: #ea447b"/>
        <path d="M42.23,49.84v52.34H96.66a7.61,7.61,0,0,0,7.61-7.61V42.23H49.84A7.61,7.61,0,0,0,42.23,49.84Z" style="fill: #ed5555"/>
        <path d="M125.12,115.43V42.23H104.27V94.57a7.61,7.61,0,0,1-7.61,7.61H42.23V123h75.28A7.61,7.61,0,0,0,125.12,115.43Z" style="fill: #7d5bbf"/>
        <path d="M138.89,42.23H125.12v73.2a7.61,7.61,0,0,1-7.61,7.61H42.23V136.8a7.61,7.61,0,0,0,7.61,7.61h89a7.61,7.61,0,0,0,7.61-7.61v-87A7.61,7.61,0,0,0,138.89,42.23Z" style="fill: #36b7f3"/>
      </g>
    </g>
  </g>
</svg>
