<svg id="Layer_1" data-name="Layer 1" xmlns="http://www.w3.org/2000/svg" xmlns:xlink="http://www.w3.org/1999/xlink" viewBox="0 0 664 282">
  <defs>
    <radialGradient id="radial-gradient" cx="-61.72" cy="455.01" r="5.8" gradientTransform="matrix(0, 38.3, 44.12, 0, -19549.27, 2389.82)" gradientUnits="userSpaceOnUse">
      <stop offset="0" stop-color="#20c6b7"/>
      <stop offset="1" stop-color="#4d9abf"/>
    </radialGradient>
  </defs>
  <title>react_netlify</title>
  <path d="M576.82,103l-.08,0a.34.34,0,0,1-.13-.08.64.64,0,0,1-.16-.54L580.92,75l21,21-21.83,9.29a.48.48,0,0,1-.19,0h-.09l-.12-.1A9.94,9.94,0,0,0,576.82,103Zm30.44-1.67,22.44,22.44c4.66,4.67,7,7,7.85,9.69a10.92,10.92,0,0,1,.31,1.21L584.23,112l-.09,0c-.21-.09-.46-.19-.46-.41s.25-.32.47-.41l.07,0Zm29.68,40.55c-1.16,2.18-3.42,4.44-7.24,8.26l-25.3,25.3-32.72-6.81-.17,0c-.29,0-.6-.1-.6-.36a9.88,9.88,0,0,0-3.79-6.91.57.57,0,0,1-.06-.53.18.18,0,0,1,0-.08L573.23,123l0-.13c0-.29.09-.63.35-.63a10,10,0,0,0,6.72-3.85c.05-.06.09-.12.16-.16a.76.76,0,0,1,.6.08l55.87,23.63ZM598.59,181.3,557,222.9l7.12-43.77v-.06a.78.78,0,0,1,0-.17c.06-.14.21-.2.35-.25l.07,0a10.71,10.71,0,0,0,4-3,.89.89,0,0,1,.52-.35h.17l29.3,6Zm-50.41,50.41-4.69,4.69-51.85-74.93-.06-.08a.51.51,0,0,1-.15-.35.42.42,0,0,1,.13-.24l.06-.08c.16-.23.29-.46.43-.71l.12-.2,0,0a.83.83,0,0,1,.3-.35.7.7,0,0,1,.42,0l57.44,11.85a1,1,0,0,1,.44.19.42.42,0,0,1,.11.25,10.17,10.17,0,0,0,6,6.8c.16.08.09.26,0,.45a1.38,1.38,0,0,0-.09.26C556,183.63,549.84,221.49,548.18,231.71Zm-9.8,9.79c-3.46,3.42-5.49,5.23-7.8,6a11.58,11.58,0,0,1-7,0c-2.7-.86-5-3.18-9.69-7.85l-52.07-52.07,13.6-21.09a.87.87,0,0,1,.23-.27.6.6,0,0,1,.53,0,14.09,14.09,0,0,0,9.48-.48c.16-.06.31-.1.43,0a1.1,1.1,0,0,1,.16.19l52.1,75.61Zm-81.56-59-11.94-11.94,23.59-10.06a.49.49,0,0,1,.19,0c.2,0,.31.2.42.38q.36.55.75,1.07l.08.09c.07.1,0,.2,0,.29l-13,20.22Zm-17.23-17.23-15.11-15.11c-2.57-2.57-4.44-4.44-5.73-6l45.95,9.53.17,0c.28,0,.6.1.6.36s-.34.42-.63.53l-.13.06ZM416.1,136.37a11.58,11.58,0,0,1,.52-2.87c.86-2.7,3.18-5,7.85-9.69l19.34-19.34q13.36,19.38,26.78,38.72c.16.21.33.44.15.61a16.07,16.07,0,0,0-2.29,3.06.93.93,0,0,1-.29.36.32.32,0,0,1-.24,0h0L416.1,136.37ZM449,99.3l26-26c2.44,1.07,11.34,4.83,19.29,8.19,6,2.55,11.51,4.86,13.24,5.62a.64.64,0,0,1,.41.31.59.59,0,0,1,0,.35,11.6,11.6,0,0,0,3,10.58c.17.17,0,.42-.15.64l-.08.12L484.32,140a.8.8,0,0,1-.25.29.67.67,0,0,1-.5,0,13.17,13.17,0,0,0-3.14-.43,17.32,17.32,0,0,0-3,.36h0a.39.39,0,0,1-.31,0,1.22,1.22,0,0,1-.26-.3ZM480.24,68l33.66-33.66c4.66-4.66,7-7,9.69-7.85a11.58,11.58,0,0,1,7,0c2.7.85,5,3.18,9.69,7.85l7.3,7.3L523.63,78.76a.9.9,0,0,1-.24.28.61.61,0,0,1-.52,0,12.14,12.14,0,0,0-11.12,2.14c-.16.16-.39.07-.58,0C508,79.8,483.72,69.52,480.24,68Zm72.41-21.28,22.11,22.11-5.33,33v.09a.78.78,0,0,1,0,.22c-.06.12-.17.14-.29.17a10.6,10.6,0,0,0-3.17,1.58l-.12.1a.37.37,0,0,1-.23.14.66.66,0,0,1-.25,0L531.64,89.81l-.06,0c-.21-.09-.47-.19-.47-.41a12.73,12.73,0,0,0-1.79-5.3c-.16-.27-.34-.54-.2-.82ZM529.89,96.59,561.46,110c.17.08.36.16.44.34a.61.61,0,0,1,0,.33,7.85,7.85,0,0,0-.17,1.52V113c0,.22-.23.31-.43.4l-.06,0c-5,2.14-70.23,30-70.33,30a.37.37,0,0,1-.3-.1c-.17-.17,0-.42.16-.64l.08-.12,26-40.18,0-.07c.15-.24.32-.52.6-.52l.26,0a12.1,12.1,0,0,0,1.64.16,11.72,11.72,0,0,0,9.78-5.19.93.93,0,0,1,.2-.23A.59.59,0,0,1,529.89,96.59Zm-36.16,53.18,71.1-30.32a.31.31,0,0,1,.2.1,9.62,9.62,0,0,0,1,.89l.16.1c.14.08.29.17.3.32a.59.59,0,0,1,0,.14l-6.09,37.41,0,.15c0,.29-.08.62-.35.62a10,10,0,0,0-7.95,4.9l0,0a.81.81,0,0,1-.29.33.65.65,0,0,1-.41,0l-56.7-11.7C494.61,152.77,493.79,149.78,493.72,149.77Z" style="fill: url(#radial-gradient)"/>
  <g>
    <path d="M270,137.48c0-16.3-20.41-31.74-51.7-41.32,7.22-31.89,4-57.26-10.13-65.39A22,22,0,0,0,196.94,28V39.15a11.61,11.61,0,0,1,5.72,1.3c6.82,3.91,9.78,18.8,7.47,38-.55,4.71-1.45,9.68-2.56,14.74a243,243,0,0,0-31.84-5.47,244.6,244.6,0,0,0-20.86-25.07C171.22,47.42,186.56,39.1,197,39.1V27.91h0c-13.79,0-31.84,9.83-50.09,26.88-18.25-16.95-36.3-26.68-50.09-26.68V39.3c10.38,0,25.77,8.27,42.12,23.37a236.83,236.83,0,0,0-20.71,25A234.15,234.15,0,0,0,86.33,93.2c-1.15-5-2-9.88-2.61-14.54-2.36-19.15.55-34,7.32-38a11.16,11.16,0,0,1,5.77-1.3V28.16h0A22.36,22.36,0,0,0,85.47,31c-14.09,8.12-17.25,33.45-10,65.24-31.19,9.63-51.5,25-51.5,41.27s20.41,31.74,51.7,41.32c-7.22,31.89-4,57.26,10.13,65.39A22,22,0,0,0,97.11,247c13.79,0,31.84-9.83,50.09-26.88,18.25,16.95,36.3,26.68,50.09,26.68A22.36,22.36,0,0,0,208.63,244c14.09-8.12,17.25-33.45,10-65.24C249.69,169.17,270,153.72,270,137.48ZM204.71,104c-1.86,6.47-4.16,13.14-6.77,19.81-2.06-4-4.21-8-6.57-12s-4.76-7.92-7.22-11.73C191.28,101.12,198.15,102.43,204.71,104Zm-23,53.4c-3.91,6.77-7.92,13.19-12.08,19.15-7.47.65-15,1-22.66,1s-15.14-.35-22.56-1q-6.24-9-12.13-19.05-5.72-9.85-10.43-20c3.11-6.72,6.62-13.44,10.38-20,3.91-6.77,7.92-13.19,12.08-19.15,7.47-.65,15-1,22.66-1s15.14.35,22.56,1q6.24,9,12.13,19.05,5.72,9.85,10.43,20C189,144.14,185.51,150.86,181.75,157.43Zm16.2-6.52c2.71,6.72,5,13.44,6.92,20-6.57,1.6-13.49,3-20.66,4,2.46-3.86,4.91-7.82,7.22-11.88S195.89,154.92,197.94,150.91Zm-50.84,53.5a206.72,206.72,0,0,1-13.94-16c4.51.2,9.13.35,13.79.35s9.38-.1,13.94-.35A195.72,195.72,0,0,1,147.1,204.42Zm-37.31-29.53c-7.12-1.05-14-2.36-20.56-4,1.86-6.47,4.16-13.14,6.77-19.81,2.06,4,4.21,8,6.57,12S107.34,171.07,109.79,174.88ZM146.85,70.53a206.72,206.72,0,0,1,13.94,16c-4.51-.2-9.13-.35-13.79-.35s-9.38.1-13.94.35A195.72,195.72,0,0,1,146.85,70.53Zm-37.11,29.53c-2.46,3.86-4.91,7.82-7.22,11.88s-4.46,8-6.52,12c-2.71-6.72-5-13.44-6.92-20C95.65,102.48,102.57,101.12,109.74,100.07ZM64.36,162.85c-17.75-7.57-29.23-17.5-29.23-25.37s11.48-17.85,29.23-25.37c4.31-1.86,9-3.51,13.89-5.06a240.83,240.83,0,0,0,11.28,30.54A237.43,237.43,0,0,0,78.4,168C73.44,166.41,68.73,164.7,64.36,162.85Zm27,71.65c-6.82-3.91-9.78-18.8-7.47-38,.55-4.71,1.45-9.68,2.56-14.74a243,243,0,0,0,31.84,5.47,244.6,244.6,0,0,0,20.86,25.07c-16.35,15.19-31.69,23.52-42.12,23.52A12,12,0,0,1,91.34,234.5Zm118.94-38.21c2.36,19.15-.55,34-7.32,38a11.16,11.16,0,0,1-5.77,1.3c-10.38,0-25.77-8.27-42.12-23.37a236.83,236.83,0,0,0,20.71-25,234.15,234.15,0,0,0,31.89-5.52A140.38,140.38,0,0,1,210.28,196.29Zm19.3-33.45c-4.31,1.86-9,3.51-13.89,5.06a240.83,240.83,0,0,0-11.28-30.54A237.43,237.43,0,0,0,215.55,107c5,1.55,9.68,3.26,14.09,5.11,17.75,7.57,29.23,17.5,29.23,25.37S247.34,155.33,229.59,162.85Z" style="fill: #61dafb"/>
    <circle cx="146.95" cy="137.48" r="22.92" style="fill: #61dafb"/>
  </g>
  <path d="M372,132.5H346.5V107a4.5,4.5,0,0,0-9,0v25.5H312a4.5,4.5,0,0,0,0,9h25.5V167a4.5,4.5,0,0,0,9,0V141.5H372a4.5,4.5,0,0,0,0-9Z" style="fill: #b3b3b3"/>
</svg>
